<?xml version="1.0" encoding="UTF-8" standalone="no"?>
<!-- Created with Inkscape (http://www.inkscape.org/) -->

<svg
   xmlns:dc="http://purl.org/dc/elements/1.1/"
   xmlns:cc="http://creativecommons.org/ns#"
   xmlns:rdf="http://www.w3.org/1999/02/22-rdf-syntax-ns#"
   xmlns:svg="http://www.w3.org/2000/svg"
   xmlns="http://www.w3.org/2000/svg"
   xmlns:sodipodi="http://sodipodi.sourceforge.net/DTD/sodipodi-0.dtd"
   xmlns:inkscape="http://www.inkscape.org/namespaces/inkscape"
   id="svg2"
   version="1.1"
   inkscape:version="0.48.0 r9654"
   width="128"
   height="128"
   sodipodi:docname="icon_2.svg"
   inkscape:export-filename="/media/data/Resources/Icons/Comments/comment_reply.png"
   inkscape:export-xdpi="906.01367"
   inkscape:export-ydpi="906.01367">
  <metadata
     id="metadata8">
    <rdf:RDF>
      <cc:Work
         rdf:about="">
        <dc:format>image/svg+xml</dc:format>
        <dc:type
           rdf:resource="http://purl.org/dc/dcmitype/StillImage" />
        <dc:title></dc:title>
      </cc:Work>
    </rdf:RDF>
  </metadata>
  <defs
     id="defs6">
    <inkscape:perspective
       sodipodi:type="inkscape:persp3d"
       inkscape:vp_x="0 : 0.5 : 1"
       inkscape:vp_y="0 : 1000 : 0"
       inkscape:vp_z="1 : 0.5 : 1"
       inkscape:persp3d-origin="0.5 : 0.33333333 : 1"
       id="perspective10" />
    <inkscape:perspective
       id="perspective2949"
       inkscape:persp3d-origin="0.5 : 0.33333333 : 1"
       inkscape:vp_z="1 : 0.5 : 1"
       inkscape:vp_y="0 : 1000 : 0"
       inkscape:vp_x="0 : 0.5 : 1"
       sodipodi:type="inkscape:persp3d" />
    <inkscape:perspective
       id="perspective3181"
       inkscape:persp3d-origin="0.5 : 0.33333333 : 1"
       inkscape:vp_z="1 : 0.5 : 1"
       inkscape:vp_y="0 : 1000 : 0"
       inkscape:vp_x="0 : 0.5 : 1"
       sodipodi:type="inkscape:persp3d" />
  </defs>
  <sodipodi:namedview
     pagecolor="#ffffff"
     bordercolor="#666666"
     borderopacity="1"
     objecttolerance="10"
     gridtolerance="10"
     guidetolerance="10"
     inkscape:pageopacity="0"
     inkscape:pageshadow="2"
     inkscape:window-width="1280"
     inkscape:window-height="962"
     id="namedview4"
     showgrid="false"
     inkscape:zoom="7.375"
     inkscape:cx="86.794839"
     inkscape:cy="74.775424"
     inkscape:window-x="-8"
     inkscape:window-y="-8"
     inkscape:window-maximized="1"
     inkscape:current-layer="svg2" />
  <path
     style="fill:#fc5705;fill-opacity:1"
     d="M 56.9375 24.4375 C 45.180255 24.51697 33.73165 28.703221 26.6875 36.375 C 12.162061 52.194638 25.60011 74.074176 51.5 76.78125 L 57.46875 77.40625 L 63.09375 85.25 C 66.631774 90.19167 69.01201 92.67651 69.46875 91.9375 C 69.8685 91.29069 70.50163 87.311574 70.875 83.09375 L 71.5625 75.4375 L 77.25 72.8125 C 99.74303 62.487974 99.88785 39.455906 77.53125 28.84375 C 71.139272 25.80963 63.991847 24.389819 56.9375 24.4375 z M 44.9375 32.5625 L 50.40625 32.5625 L 42.40625 57.28125 C 42.37191 57.387478 42.330197 57.506314 42.3125 57.59375 C 42.29479 57.681202 42.285402 57.768786 42.25 57.875 C 42.249994 57.980155 42.236452 58.081824 42.21875 58.1875 C 42.201042 58.293191 42.187495 58.394859 42.1875 58.5 C 42.187495 58.851931 42.292783 59.160555 42.46875 59.40625 C 42.644706 59.651959 42.922081 59.781255 43.34375 59.78125 C 44.222476 59.781255 45.065999 59.449159 45.875 58.78125 C 46.683984 58.113355 47.297076 57.370429 47.71875 56.5625 C 47.823887 56.421954 47.929713 56.252017 48 56.09375 C 48.070266 55.935501 48.120832 55.796815 48.15625 55.65625 C 48.227052 55.480299 48.264071 55.314518 48.28125 55.15625 C 48.298406 54.998002 48.312489 54.859315 48.3125 54.71875 C 48.312489 54.437652 48.257765 54.138953 48.1875 53.875 C 48.117211 53.61107 48.042637 53.370714 47.9375 53.125 C 47.902082 53.054198 47.892156 52.990086 47.875 52.9375 C 47.857823 52.884937 47.816647 52.820825 47.78125 52.75 C 47.640685 52.433495 47.511923 52.114945 47.40625 51.78125 C 47.300554 51.447581 47.249989 51.077928 47.25 50.65625 C 47.249989 50.444896 47.277084 50.210848 47.3125 50 C 47.347897 49.789185 47.398998 49.55929 47.46875 49.3125 L 47.875 47.90625 L 52.84375 49.5 L 52.75 49.90625 L 58.28125 49.90625 L 56.59375 55.1875 L 53.53125 55.1875 C 53.496899 55.538361 53.44526 55.898085 53.375 56.25 C 53.304706 56.601931 53.199953 56.93041 53.09375 57.28125 C 52.460702 59.215759 51.233981 61.00809 49.40625 62.625 C 47.578494 64.241914 45.586445 65.03125 43.40625 65.03125 C 43.054321 65.03125 42.695132 65.007778 42.34375 64.9375 C 41.99236 64.867222 41.636253 64.792649 41.25 64.6875 C 39.807972 64.195023 38.734558 63.347881 38.03125 62.1875 C 37.32794 61.027124 36.995843 59.777466 37.03125 58.40625 C 37.03125 58.195961 37.044797 57.978543 37.0625 57.75 C 37.080203 57.521472 37.089593 57.278032 37.125 57.03125 C 37.159333 56.785555 37.196889 56.541045 37.25 56.3125 C 37.303108 56.083973 37.36776 55.866555 37.4375 55.65625 L 44.9375 32.5625 z M 65.28125 32.5625 L 70.75 32.5625 L 65.4375 49 C 65.859153 48.75324 66.292919 48.564523 66.75 48.40625 C 67.207059 48.248009 67.667917 48.105165 68.125 48 C 68.265541 48.000018 68.404228 47.986482 68.5625 47.96875 C 68.720744 47.951063 68.89068 47.968766 69.03125 47.96875 C 69.312343 47.968766 69.607423 47.978156 69.90625 48.03125 C 70.205047 48.084378 70.471958 48.176117 70.71875 48.28125 C 71.738022 48.633189 72.480411 49.246282 72.9375 50.125 C 73.394551 51.003747 73.624981 51.949473 73.625 52.96875 C 73.624981 53.496644 73.560333 54.085729 73.4375 54.71875 C 73.31463 55.351792 73.094665 56.015987 72.8125 56.71875 C 72.742742 56.964461 72.681713 57.204815 72.59375 57.46875 C 72.505753 57.732698 72.413474 58.004305 72.34375 58.25 C 72.272921 58.496782 72.212963 58.736599 72.125 59 C 72.037003 59.263411 71.944724 59.535552 71.875 59.78125 L 76.15625 59.78125 L 74.46875 65 L 70.71875 65 C 69.417263 65 68.370942 64.548531 67.5625 63.6875 C 66.75403 62.826472 66.343739 61.81717 66.34375 60.65625 C 66.343739 60.515701 66.357282 60.404105 66.375 60.28125 C 66.392691 60.158403 66.374989 60.01556 66.375 59.875 C 66.409322 59.769856 66.464582 59.654643 66.5 59.53125 C 66.535395 59.407867 66.55833 59.265559 66.59375 59.125 C 66.698886 58.774155 66.828183 58.432132 66.96875 58.0625 C 67.109293 57.692882 67.237517 57.323766 67.34375 56.9375 C 67.413478 56.796954 67.478664 56.640562 67.53125 56.5 C 67.583812 56.359453 67.62083 56.23123 67.65625 56.125 C 67.832198 55.633605 67.970885 55.175831 68.09375 54.71875 C 68.216588 54.261691 68.335422 53.796676 68.40625 53.375 C 67.351541 53.796676 66.341704 54.515594 65.375 55.5 C 64.408276 56.484427 63.547586 57.531821 62.84375 58.65625 C 62.527226 59.113326 62.245695 59.58773 62 60.0625 C 61.754291 60.537278 61.550954 60.98459 61.375 61.40625 L 60.21875 65 L 54.71875 65 L 65.28125 32.5625 z "
     id="path2843"
     inkscape:export-xdpi="2123.9287"
     inkscape:export-ydpi="2123.9287" />
  <path
     style="fill:#000000"
     d=""
     id="path2955" />
</svg>
