<?xml version="1.0" encoding="UTF-8" standalone="no"?>
<!-- Created with Inkscape (http://www.inkscape.org/) -->

<svg
   xmlns:dc="http://purl.org/dc/elements/1.1/"
   xmlns:cc="http://creativecommons.org/ns#"
   xmlns:rdf="http://www.w3.org/1999/02/22-rdf-syntax-ns#"
   xmlns:svg="http://www.w3.org/2000/svg"
   xmlns="http://www.w3.org/2000/svg"
   xmlns:sodipodi="http://sodipodi.sourceforge.net/DTD/sodipodi-0.dtd"
   xmlns:inkscape="http://www.inkscape.org/namespaces/inkscape"
   width="744.09448819"
   height="1052.3622047"
   id="svg2"
   version="1.1"
   inkscape:version="0.48.0 r9654"
   sodipodi:docname="icon.svg"
   inkscape:export-filename="E:\Projects\UpcomingMusic\graphics\icon.png"
   inkscape:export-xdpi="899.53253"
   inkscape:export-ydpi="899.53253">
  <defs
     id="defs4" />
  <sodipodi:namedview
     id="base"
     pagecolor="#ffffff"
     bordercolor="#666666"
     borderopacity="1.0"
     inkscape:pageopacity="0.0"
     inkscape:pageshadow="2"
     inkscape:zoom="0.98994949"
     inkscape:cx="261.78857"
     inkscape:cy="439.24639"
     inkscape:document-units="px"
     inkscape:current-layer="layer3"
     showgrid="false"
     inkscape:window-width="1280"
     inkscape:window-height="890"
     inkscape:window-x="-8"
     inkscape:window-y="-8"
     inkscape:window-maximized="1" />
  <metadata
     id="metadata7">
    <rdf:RDF>
      <cc:Work
         rdf:about="">
        <dc:format>image/svg+xml</dc:format>
        <dc:type
           rdf:resource="http://purl.org/dc/dcmitype/StillImage" />
        <dc:title></dc:title>
      </cc:Work>
    </rdf:RDF>
  </metadata>
  <g
     inkscape:label="Layer 1"
     inkscape:groupmode="layer"
     id="layer1"
     style="display:inline">
    <g
       inkscape:groupmode="layer"
       id="layer3"
       inkscape:label="bg"
       style="display:inline" />
    <g
       inkscape:groupmode="layer"
       id="layer4"
       inkscape:label="border"
       style="display:inline">
      <flowRoot
         xml:space="preserve"
         id="flowRoot3006"
         style="fill:black;stroke:none;stroke-opacity:1;stroke-width:1px;stroke-linejoin:miter;stroke-linecap:butt;fill-opacity:1;font-family:Airstream;font-style:normal;font-weight:normal;font-size:144px;line-height:125%;letter-spacing:0px;word-spacing:0px;-inkscape-font-specification:Airstream;font-stretch:normal;font-variant:normal"><flowRegion
           id="flowRegion3008"><rect
             id="rect3010"
             width="542.4519"
             height="191.92899"
             x="150.51273"
             y="526.07269"
             style="-inkscape-font-specification:Airstream;font-family:Airstream;font-weight:normal;font-style:normal;font-stretch:normal;font-variant:normal;font-size:144px" /></flowRegion><flowPara
           id="flowPara3012"></flowPara></flowRoot>      <g
         transform="translate(159.6041,-5.0507627)"
         style="font-size:40px;font-style:normal;font-variant:normal;font-weight:normal;font-stretch:normal;line-height:125%;letter-spacing:0px;word-spacing:0px;fill:#fc5705;fill-opacity:1;stroke:none;font-family:Sansation;-inkscape-font-specification:Sansation"
         id="flowRoot3014">
        <path
           style="font-size:350px;font-style:normal;font-variant:normal;font-weight:normal;font-stretch:normal;line-height:125%;letter-spacing:0px;word-spacing:0px;fill:#ffffff;fill-opacity:1;stroke:none;display:inline;font-family:Airstream;-inkscape-font-specification:Airstream"
           d="M 134.21875,487.6875 C 116.4462,544.28745 96.318334,600.25846 80.375,657.40625 c -3.693094,23.17651 8.385839,49.82538 31.6875,57.1875 24.86884,9.08629 53.38495,-1.81279 70.0625,-21.0625 10.95837,-11.29924 19.39449,-25.50834 22.375,-41.0625 6.39583,0 12.79167,0 19.1875,0 5.4021,-16.89716 10.81098,-33.79215 16.21875,-50.6875 -14.19559,-1.57359 -28.91301,1.44759 -42.8125,-1.34375 -7.91152,-5.2423 -18.00925,-5.20774 -26.49814,-9.27866 -4.43394,-2.19296 -12.56633,-2.46315 -14.81724,-5.7972 10.74069,-33.0028 21.4051,-66.0304 32.09663,-99.04914 -17.72917,0 -35.45833,0 -53.1875,0 l -0.32267,0.94651 -0.14608,0.42849 z m 14.46875,119.75 c -1.88718,9.52584 0.0799,19.51417 5.09375,27.65625 3.92744,11.0798 -4.95306,21.01866 -12.71875,27.625 -3.00253,2.25787 -7.02898,4.24375 -10.6875,3.71875 0.1463,-7.01796 4.4399,-13.2538 5.63735,-20.16202 4.20184,-12.81084 8.57833,-26.70413 12.67515,-38.83798 z"
           id="path3791-6"
           inkscape:connector-curvature="0" />
        <path
           d="m 229.32953,608.28445 -11.20453,35.00213 -20.30487,0 c -0.22798,2.32856 -0.57511,4.66061 -1.04141,6.99616 -0.46652,2.33567 -1.05221,4.66772 -1.75705,6.99615 -4.20136,12.83879 -12.36709,24.62365 -24.49723,35.35462 -12.1303,10.731 -25.4301,16.09649 -39.89944,16.09649 -2.33565,0 -4.66948,-0.2332 -7.0015,-0.69961 -2.33208,-0.46641 -4.77984,-1.04853 -7.34329,-1.74637 -9.57033,-3.26843 -16.689311,-8.75319 -21.356962,-16.45431 -4.667667,-7.70109 -6.884004,-16.10181 -6.649017,-25.20218 -10e-7,-1.39563 0.05875,-2.85182 0.176239,-4.3686 0.117491,-1.51667 0.29373,-3.09392 0.528717,-4.73175 0.227862,-1.6306 0.518033,-3.20428 0.870514,-4.72106 0.352475,-1.51667 0.760138,-2.97286 1.222992,-4.3686 l 49.699397,-153.30658 36.40137,0 -53.20282,164.14795 c -0.2279,0.70501 -0.40058,1.34766 -0.51803,1.92795 -0.11753,0.58039 -0.29377,1.22304 -0.52872,1.92795 -4e-5,0.69788 -0.0588,1.3975 -0.17624,2.09885 -0.11753,0.70144 -0.17627,1.40105 -0.17624,2.09884 -3e-5,2.33566 0.58387,4.31879 1.75171,5.9494 1.16777,1.6307 3.1509,2.44602 5.9494,2.44599 5.83186,3e-5 11.43234,-2.2163 16.80145,-6.64902 5.369,-4.43263 9.45275,-9.32993 12.25129,-14.69192 0.69776,-0.93277 1.27988,-1.92433 1.74636,-2.97471 0.46634,-1.05025 0.81704,-2.04181 1.0521,-2.9747 0.46989,-1.16774 0.76184,-2.2768 0.87585,-3.32718 0.11386,-1.05024 0.17082,-2.04181 0.1709,-2.9747 -8e-5,-1.86557 -0.23328,-3.67424 -0.69961,-5.42602 -0.46649,-1.75163 -1.04861,-3.44282 -1.74637,-5.07355 -0.23506,-0.46989 -0.40952,-0.87933 -0.52338,-1.22833 -0.114,-0.34884 -0.28846,-0.75828 -0.52338,-1.22833 -0.93289,-2.10055 -1.75,-4.25814 -2.45132,-6.47278 -0.70147,-2.21447 -1.05216,-4.72098 -1.05209,-7.51953 -7e-5,-1.4027 0.11742,-2.80371 0.35247,-4.20304 0.23492,-1.39913 0.58384,-2.91763 1.04676,-4.55551 l 2.79846,-9.44214 32.89795,10.49958 -0.69428,2.79846 36.75385,0 z"
           style="font-size:350px;fill:#fc5705;font-family:Airstream;-inkscape-font-specification:Airstream"
           id="path3791" />
        <path
           style="font-size:350px;font-style:normal;font-variant:normal;font-weight:normal;font-stretch:normal;line-height:125%;letter-spacing:0px;word-spacing:0px;fill:#ffffff;fill-opacity:1;stroke:none;display:inline;font-family:Airstream;-inkscape-font-specification:Airstream"
           d="m 269.3125,487.6875 c -25.04512,76.57158 -49.8879,153.24157 -74.78125,229.875 17.79167,0 35.58333,0 53.375,0 6.26144,-24.28656 15.81449,-48.76151 34.5625,-66.125 -6.05922,14.78776 -12.2528,32.81239 -3.28125,47.75 7.72519,13.61159 24.38663,20.81621 39.71875,18.375 7.79167,0 15.58333,0 23.375,0 5.41361,-16.89646 10.90899,-33.76659 16.34375,-50.65625 -9.48958,0 -18.97917,0 -28.46875,0 6.89002,-18.81828 13.71343,-41.46961 3.09375,-60.1875 -8.28155,-15.13949 -28.35613,-21.20564 -44,-17.0625 7.47375,-20.07209 13.10971,-40.98364 20.09387,-61.33465 4.51962,-14.00341 9.04873,-28.00376 13.56238,-42.0091 -17.70833,0 -35.41667,0 -53.125,0 l -0.32267,0.94651 -0.14608,0.42849 z"
           id="path3793-4"
           inkscape:connector-curvature="0" />
        <path
           d="m 347.92236,673.72787 -11.20453,34.64966 -24.84436,0 c -8.63759,0 -15.63907,-2.85721 -21.00448,-8.57163 -5.36558,-5.7144 -8.04833,-12.42394 -8.04825,-20.12863 -8e-5,-0.93279 0.0587,-1.80686 0.17624,-2.62222 0.11741,-0.8153 0.17616,-1.68937 0.17624,-2.62223 0.22778,-0.6978 0.45921,-1.45616 0.69427,-2.27508 0.23491,-0.81885 0.46989,-1.69471 0.70496,-2.62756 0.69775,-2.32845 1.51308,-4.71925 2.44598,-7.1724 0.93274,-2.45305 1.75163,-4.96134 2.45667,-7.52487 0.46276,-0.93277 0.86865,-1.86559 1.21765,-2.79846 0.34883,-0.93277 0.64078,-1.75165 0.87585,-2.45667 1.16772,-3.26125 2.15929,-6.40862 2.9747,-9.44214 0.81524,-3.03337 1.45789,-5.94932 1.92795,-8.74786 -6.9998,2.79854 -13.70755,7.46442 -20.12329,13.99765 -6.41587,6.53336 -11.95939,13.53129 -16.63055,20.99381 -2.10068,3.03348 -3.96632,6.12567 -5.59693,9.27658 -1.6307,3.15097 -3.02993,6.12566 -4.19769,8.9241 l -7.70111,23.79761 -36.40137,0 70.00427,-215.24659 36.39069,0 -35.34393,109.20411 c 2.79839,-1.63767 5.71434,-2.98172 8.74786,-4.03214 3.03337,-1.0502 6.06681,-1.92427 9.10034,-2.62222 0.93273,1.1e-4 1.9243,-0.0586 2.9747,-0.17624 1.05022,-0.11738 2.04179,-0.17613 2.97471,-0.17624 1.86554,1.1e-4 3.78993,0.17635 5.77316,0.52872 1.98303,0.35259 3.79348,0.87774 5.43136,1.57547 6.76462,2.33572 11.6637,6.41947 14.69727,12.25128 3.03332,5.832 4.55005,12.13031 4.55017,18.89496 -1.2e-4,3.50349 -0.40779,7.35582 -1.22299,11.557 -0.81545,4.20132 -2.1595,8.634 -4.03214,13.29804 -0.46297,1.63071 -0.98634,3.32189 -1.57013,5.07355 -0.58402,1.75175 -1.10739,3.44293 -1.57013,5.07354 -0.47008,1.63782 -0.99702,3.33078 -1.58081,5.07889 -0.58401,1.74819 -1.10739,3.43759 -1.57013,5.06821 l 28.34778,0 z"
           style="font-size:350px;fill:#fc5705;font-family:Airstream;-inkscape-font-specification:Airstream"
           id="path3793" />
      </g>
    </g>
    <g
       inkscape:groupmode="layer"
       id="layer2"
       inkscape:label="Layer"
       style="display:inline" />
  </g>
</svg>
