<?xml version="1.0" encoding="UTF-8" standalone="no"?>
<!-- Created with Inkscape (http://www.inkscape.org/) -->

<svg
   xmlns:dc="http://purl.org/dc/elements/1.1/"
   xmlns:cc="http://creativecommons.org/ns#"
   xmlns:rdf="http://www.w3.org/1999/02/22-rdf-syntax-ns#"
   xmlns:svg="http://www.w3.org/2000/svg"
   xmlns="http://www.w3.org/2000/svg"
   xmlns:sodipodi="http://sodipodi.sourceforge.net/DTD/sodipodi-0.dtd"
   xmlns:inkscape="http://www.inkscape.org/namespaces/inkscape"
   width="744.09448819"
   height="1052.3622047"
   id="svg2"
   version="1.1"
   inkscape:version="0.48.0 r9654"
   sodipodi:docname="New document 1">
  <defs
     id="defs4" />
  <sodipodi:namedview
     id="base"
     pagecolor="#ffffff"
     bordercolor="#666666"
     borderopacity="1.0"
     inkscape:pageopacity="0.0"
     inkscape:pageshadow="2"
     inkscape:zoom="0.98994949"
     inkscape:cx="261.78857"
     inkscape:cy="447.83269"
     inkscape:document-units="px"
     inkscape:current-layer="layer4"
     showgrid="false"
     inkscape:window-width="1280"
     inkscape:window-height="890"
     inkscape:window-x="-8"
     inkscape:window-y="-8"
     inkscape:window-maximized="1" />
  <metadata
     id="metadata7">
    <rdf:RDF>
      <cc:Work
         rdf:about="">
        <dc:format>image/svg+xml</dc:format>
        <dc:type
           rdf:resource="http://purl.org/dc/dcmitype/StillImage" />
        <dc:title></dc:title>
      </cc:Work>
    </rdf:RDF>
  </metadata>
  <g
     inkscape:label="Layer 1"
     inkscape:groupmode="layer"
     id="layer1"
     style="display:inline">
    <g
       inkscape:groupmode="layer"
       id="layer3"
       inkscape:label="bg"
       style="display:inline">
      <rect
         style="fill:#1a1918;fill-opacity:1;stroke:none"
         id="rect3987"
         width="742.4621"
         height="609.12201"
         x="2.0203052"
         y="293.73761" />
    </g>
    <g
       inkscape:groupmode="layer"
       id="layer4"
       inkscape:label="border"
       style="display:inline">
      <g
         transform="translate(31.733191,191.21662)"
         style="font-size:40px;font-style:normal;font-variant:normal;font-weight:normal;font-stretch:normal;line-height:125%;letter-spacing:0px;word-spacing:0px;fill:#fc5705;fill-opacity:1;stroke:none;display:inline;font-family:Sansation;-inkscape-font-specification:Sansation"
         id="flowRoot2985">
        <path
           style="font-size:144px;fill:#ffffff;fill-opacity:1;font-family:Airstream;-inkscape-font-specification:Airstream"
           d="m 127.375,353.0625 c -7.15509,23.68236 -16.29426,47.0418 -22.28125,71.125 -1.67542,12.80284 9.56974,25.63777 22.75,24.125 14.39288,-0.75049 26.05958,-12.97977 29.78125,-26.21875 4.98237,-0.19544 11.48778,-2.90446 10.71875,-9.0625 1.41177,-4.25046 6.32758,-14.75644 -2.125,-14.375 -9.54185,2.77892 -18.25469,-3.50754 -27.3125,-4.9375 -3.0014,-0.84305 2.55355,-8.76041 2.63845,-12.17746 3.22317,-9.95175 6.46241,-19.89831 9.67405,-29.85379 -7.79167,0 -15.58333,0 -23.375,0 l -0.32267,0.94651 -0.14608,0.42849 z m 5.875,54.09375 c 0.97114,4.63393 4.71833,9.80879 0.5,13.96875 -1.1604,1.77025 -4.72255,5.36785 -6.1875,4.03125 0.78935,-6.25728 4.47574,-11.85233 5.6875,-18 z"
           id="path3762"
           inkscape:connector-curvature="0" />
        <path
           style="font-size:144px;fill:#ffffff;fill-opacity:1;font-family:Airstream;-inkscape-font-specification:Airstream"
           d="M 182.59375,392.71875 C 161.31668,392.49196 145.70337,420.09511 158.5,437.875 c 9.28255,14.14933 32.1311,13.17287 41.875,0 2.8972,-2.64962 4.43173,-7.2956 6.34375,-9.90625 7.05897,1.19042 9.16741,-6.97553 10.4375,-12.15625 3.79474,-4.58114 1.67969,-13.11595 -5.40625,-11.4375 -3.70145,1.11477 -8.29547,1.5781 -9.65625,-3.09375 -4.67621,-5.6578 -12.10351,-8.90064 -19.5,-8.5625 z m -5.1875,28.0625 c 0.49774,1.89585 6.2279,4.09008 2.3125,4.625 -3.20468,1.07973 -3.91295,-2.98678 -2.625,-5.09375 l 0.3125,0.46875 z"
           id="path3764"
           inkscape:connector-curvature="0" />
        <path
           style="font-size:144px;fill:#ffffff;fill-opacity:1;font-family:Airstream;-inkscape-font-specification:Airstream"
           d="m 252.84375,393.75 c -19.77469,0.1755 -42.03388,10.1673 -47.90625,30.28125 -2.96006,11.29967 5.15542,24.50177 17.1875,25.09375 5.69306,1.00657 11.37913,-1.73558 16.5625,-2.4375 7.46221,3.36902 15.87075,0.57782 23.71875,1.6875 2.35137,-7.23699 4.66934,-14.48505 7.03125,-21.71875 -4.77718,-2.34168 -10.54817,0.43237 -15.21875,-0.65625 2.66057,-3.00032 2.43692,-8.23261 -1.5625,-9.90625 7.06889,1.3763 8.20398,-2.70751 7.125,-9.1875 -1.20371,-4.65046 3.32442,-15.03275 -4.375,-13.1875 -0.85414,0.01 -1.70949,-0.0278 -2.5625,0.0312 z m -22.3125,30.0625 c -0.78645,1.34206 -3.05716,3.24872 -0.65625,0.625 -0.61496,0.8262 1.17172,-1.36575 0.65625,-0.625 z"
           id="path3766"
           inkscape:connector-curvature="0" />
        <path
           style="font-size:144px;fill:#ffffff;fill-opacity:1;font-family:Airstream;-inkscape-font-specification:Airstream"
           d="m 266.03125,388.09375 c -3.29683,10.15319 -6.51706,20.32642 -9.75,30.5 6.04291,2.00705 12.08904,4.00485 18.15625,5.9375 -2.69249,10.66889 4.84141,22.50461 16.03125,23.40625 5.88354,0.92528 11.8625,-0.0926 17.78125,0.375 2.37809,-7.4328 4.80447,-14.8501 7.1875,-22.28125 -5.83952,-0.32174 -11.92832,0.22511 -17.625,-0.125 2.70702,-3.41225 5.48069,-7.88725 9.21875,-9.5625 5.06487,1.61504 8.54613,-3.82061 7.6875,-8.375 -1.2326,-4.45522 2.80944,-11.47939 -2.9375,-13.875 -6.17858,-1.326 -12.71857,-0.35406 -19.02979,-0.41477 -6.34322,1.25631 -10.91818,-3.55134 -17.06851,-4.53761 -2.43174,0.28983 -9.56369,-5.45348 -9.6517,-1.04762 z"
           id="path3768"
           inkscape:connector-curvature="0" />
        <path
           style="font-size:144px;fill:#ffffff;fill-opacity:1;font-family:Airstream;-inkscape-font-specification:Airstream"
           d="m 358.25,353.0625 c -4.39654,13.54492 -8.79134,27.1282 -13.1875,40.6875 -12.2952,-1.30769 -25.01154,3.79864 -31.90489,14.2119 -8.06182,10.72207 -9.32266,29.08925 2.87364,37.2256 8.61401,5.09778 19.77483,3.476 27.8125,-1.90625 6.10573,5.16531 14.62293,5.41548 22.28125,4.90625 2.3524,-7.2921 4.72284,-14.57878 7.0625,-21.875 -4.83898,-1.44239 -10.11978,0.675 -14.78125,-0.5 3.10251,-13.08883 8.56524,-25.67697 12.19628,-38.71625 3.83256,-11.80221 7.67618,-23.60087 11.49122,-35.40875 -7.79167,0 -15.58333,0 -23.375,0 l -0.32267,0.94651 -0.14608,0.42849 z m -20.375,63.03125 c -1.40307,4.07101 -4.59328,9.48212 -8.6875,9.53125 0.78811,-4.38041 4.28117,-8.55212 8.6875,-9.53125 z"
           id="path3770"
           inkscape:connector-curvature="0" />
        <path
           style="font-size:144px;fill:#ffffff;fill-opacity:1;font-family:Airstream;-inkscape-font-specification:Airstream"
           d="m 391.65625,353.0625 c -10.37003,31.6988 -20.67129,63.45261 -30.96875,95.1875 7.84375,0 15.6875,0 23.53125,0 1.79958,-8.85613 5.96617,-18.46159 11.625,-24.65625 -3.83033,8.06646 -1.93638,19.42362 6.9375,23.125 6.35169,2.75284 13.44873,1.18581 20.15625,1.5625 2.33903,-7.20637 4.64895,-14.4224 7,-21.625 -3.6536,-1.88513 -8.00148,-0.18923 -11.59375,-0.53125 4.48112,-9.63538 5.80539,-24.38314 -4.9375,-30.34375 -3.52098,-1.89689 -7.73244,-2.48369 -11.65625,-1.75 4.58387,-14.11103 9.16343,-28.22348 13.71875,-42.34375 -7.78125,0 -15.5625,0 -23.34375,0 l -0.32267,0.94651 -0.14608,0.42849 z"
           id="path3772"
           inkscape:connector-curvature="0" />
        <path
           style="font-size:144px;fill:#ffffff;fill-opacity:1;font-family:Airstream;-inkscape-font-specification:Airstream"
           d="m 447.8125,392.71875 c -21.27707,-0.22679 -36.89038,27.37636 -24.09375,45.15625 9.28255,14.14933 32.1311,13.17287 41.875,0 2.8972,-2.64962 4.43173,-7.2956 6.34375,-9.90625 7.05897,1.19042 9.16741,-6.97553 10.4375,-12.15625 3.79474,-4.58114 1.67969,-13.11595 -5.40625,-11.4375 -3.69917,1.11536 -8.29671,1.57677 -9.65625,-3.09375 -4.67621,-5.6578 -12.10351,-8.90064 -19.5,-8.5625 z m -5.1875,28.0625 c 0.49774,1.89585 6.2279,4.09008 2.3125,4.625 -3.20464,1.08021 -3.9129,-2.98719 -2.625,-5.09375 l 0.3125,0.46875 z"
           id="path3774"
           inkscape:connector-curvature="0" />
        <path
           style="font-size:144px;fill:#ffffff;fill-opacity:1;font-family:Airstream;-inkscape-font-specification:Airstream"
           d="m 498.4375,392.71875 c -21.27707,-0.22679 -36.89038,27.37636 -24.09375,45.15625 9.28255,14.14933 32.1311,13.17287 41.875,0 2.8972,-2.64962 4.43173,-7.2956 6.34375,-9.90625 7.05897,1.19042 9.16741,-6.97553 10.4375,-12.15625 3.79474,-4.58114 1.67969,-13.11595 -5.40625,-11.4375 -3.69917,1.11536 -8.29671,1.57677 -9.65625,-3.09375 -4.67621,-5.6578 -12.10351,-8.90064 -19.5,-8.5625 z m -5.1875,28.0625 c 0.49774,1.89585 6.2279,4.09008 2.3125,4.625 -3.20464,1.08021 -3.9129,-2.98719 -2.625,-5.09375 l 0.3125,0.46875 z"
           id="path3776"
           inkscape:connector-curvature="0" />
        <path
           style="font-size:144px;fill:#ffffff;fill-opacity:1;font-family:Airstream;-inkscape-font-specification:Airstream"
           d="m 571.4375,353.0625 c -4.39654,13.54492 -8.79134,27.1282 -13.1875,40.6875 -12.2952,-1.30769 -25.01154,3.79864 -31.90489,14.2119 -8.06182,10.72207 -9.32266,29.08925 2.87364,37.2256 8.61401,5.09778 19.77483,3.476 27.8125,-1.90625 6.10573,5.16531 14.62293,5.41548 22.28125,4.90625 2.3524,-7.2921 4.72284,-14.57878 7.0625,-21.875 -4.83898,-1.44239 -10.11978,0.675 -14.78125,-0.5 3.10251,-13.08883 8.56524,-25.67697 12.19628,-38.71625 3.83256,-11.80221 7.67618,-23.60087 11.49122,-35.40875 -7.79167,0 -15.58333,0 -23.375,0 l -0.32267,0.94651 -0.14608,0.42849 z m -20.375,63.03125 c -1.40307,4.07101 -4.59328,9.48212 -8.6875,9.53125 0.78811,-4.38041 4.28117,-8.55212 8.6875,-9.53125 z"
           id="path3778"
           inkscape:connector-curvature="0" />
      </g>
    </g>
    <g
       inkscape:groupmode="layer"
       id="layer2"
       inkscape:label="Layer"
       style="display:inline">
      <g
         transform="translate(30.899144,191.6595)"
         style="font-size:40px;font-style:normal;font-variant:normal;font-weight:normal;font-stretch:normal;line-height:125%;letter-spacing:0px;word-spacing:0px;fill:#fc5705;fill-opacity:1;stroke:none;display:inline;font-family:Sansation;-inkscape-font-specification:Sansation"
         id="flowRoot2985-4">
        <path
           d="m 167.17236,403.05667 -4.60986,14.40088 -8.354,0 c -0.0938,0.95804 -0.23662,1.91751 -0.42847,2.87842 -0.19194,0.96096 -0.43291,1.92043 -0.7229,2.87842 -1.72856,5.28224 -5.08818,10.13087 -10.07886,14.5459 -4.99075,4.41504 -10.46267,6.62255 -16.41577,6.62255 -0.96095,0 -1.92116,-0.0959 -2.88062,-0.28784 -0.95948,-0.19189 -1.96656,-0.43139 -3.02124,-0.7185 -3.9375,-1.34473 -6.86646,-3.60132 -8.78686,-6.76978 -1.92041,-3.16844 -2.83228,-6.62474 -2.7356,-10.36889 0,-0.5742 0.0242,-1.17333 0.0725,-1.79737 0.0483,-0.624 0.12085,-1.27293 0.21753,-1.94678 0.0937,-0.67087 0.21314,-1.31833 0.35816,-1.94238 0.14502,-0.624 0.31274,-1.22312 0.50317,-1.79736 l 20.44775,-63.07471 14.97657,0 -21.88916,67.53516 c -0.0938,0.29006 -0.16481,0.55446 -0.21314,0.79321 -0.0483,0.23879 -0.12086,0.50319 -0.21753,0.79321 -1e-5,0.28713 -0.0242,0.57497 -0.0725,0.86353 -0.0483,0.28859 -0.0725,0.57643 -0.0725,0.86352 -1e-5,0.96096 0.24022,1.77688 0.72071,2.44776 0.48045,0.67091 1.29637,1.00636 2.44775,1.00635 2.39939,1e-5 4.70359,-0.91185 6.9126,-2.7356 2.20896,-1.82371 3.88913,-3.8386 5.04053,-6.04468 0.28707,-0.38376 0.52658,-0.79172 0.7185,-1.22387 0.19187,-0.43211 0.33615,-0.84007 0.43286,-1.22388 0.19333,-0.48044 0.31345,-0.93674 0.36035,-1.3689 0.0469,-0.4321 0.0703,-0.84006 0.0703,-1.22388 -3e-5,-0.76754 -0.096,-1.51168 -0.28785,-2.23242 -0.19192,-0.72067 -0.43142,-1.41647 -0.7185,-2.0874 -0.0967,-0.19333 -0.16849,-0.36178 -0.21533,-0.50537 -0.0469,-0.14352 -0.11869,-0.31198 -0.21534,-0.50537 -0.38381,-0.86422 -0.71999,-1.75192 -1.00854,-2.66309 -0.2886,-0.91109 -0.43289,-1.94234 -0.43286,-3.09375 -3e-5,-0.57711 0.0483,-1.15352 0.14502,-1.72925 0.0966,-0.57564 0.2402,-1.20039 0.43066,-1.87426 l 1.15137,-3.88477 13.53516,4.31983 -0.28565,1.15136 15.12158,0 z"
           style="font-size:144px;fill:#fc5705;font-family:Airstream;-inkscape-font-specification:Airstream"
           id="path3762-0"
           inkscape:connector-curvature="0" />
        <path
           d="m 215.09912,408.8179 -4.75049,14.68653 -6.91259,0 c -1.2481,5.56642 -4.19975,10.41358 -8.85499,14.5415 -4.6553,4.12793 -9.9595,6.1919 -15.91259,6.1919 -0.28713,0 -0.5508,0 -0.79102,0 -0.24025,0 -0.50539,-0.0469 -0.79541,-0.14063 -0.28713,0 -0.5508,-0.0242 -0.79101,-0.0725 -0.24026,-0.0483 -0.50393,-0.0725 -0.79102,-0.0725 -5.27931,-0.76758 -9.52735,-3.14355 -12.74414,-7.12793 -3.2168,-3.98436 -4.8252,-8.61619 -4.8252,-13.89551 0,-6.81735 2.49609,-12.88986 7.48829,-18.21753 4.99217,-5.32759 10.99216,-7.9914 18,-7.99145 4.22457,5e-5 7.99288,1.10381 11.30493,3.31128 3.31197,2.20756 5.78389,5.13651 7.41577,8.78686 l 12.95947,0 z m -27.07031,14.39649 c -2.49612,-0.48045 -4.6326,-1.68016 -6.40943,-3.59912 -1.77687,-1.91892 -2.80885,-4.22312 -3.09594,-6.9126 -1.53518,0.96097 -2.83083,2.23318 -3.88697,3.81665 -1.05616,1.58352 -1.72779,3.23953 -2.01489,4.96802 -1e-5,0.0967 -1e-5,0.21682 0,0.36035 -1e-5,0.14358 -1e-5,0.26369 0,0.36035 -0.0967,0.0967 -0.14503,0.21682 -0.14502,0.36035 -1e-5,0.14358 -1e-5,0.2637 0,0.36035 0.0967,1.72854 0.64891,3.26443 1.65674,4.60767 1.0078,1.34328 2.51951,2.01491 4.53516,2.01489 1.91892,2e-5 3.71848,-0.62401 5.39868,-1.87207 1.68015,-1.24803 3.0007,-2.73631 3.96167,-4.46484 z"
           style="font-size:144px;fill:#fc5705;font-family:Airstream;-inkscape-font-specification:Airstream"
           id="path3764-1"
           inkscape:connector-curvature="0" />
        <path
           d="m 264.14209,429.98197 -4.60986,14.25586 -13.96582,0 c -1.53813,0 -2.93119,-0.23951 -4.1792,-0.71851 -1.24808,-0.479 -2.39945,-1.10229 -3.4541,-1.86987 -1.44144,0.86426 -3.0015,1.58423 -4.68018,2.15991 -1.67873,0.57568 -3.33401,0.95874 -4.96582,1.14917 -0.57717,0.0967 -1.15358,0.16919 -1.72925,0.21753 -0.5757,0.0483 -1.15212,0.0725 -1.72925,0.0725 -2.97657,0 -5.78468,-0.67237 -8.42431,-2.01709 -2.63966,-1.34473 -4.72706,-3.5039 -6.26221,-6.47754 -0.57715,-1.24804 -1.00928,-2.47265 -1.29639,-3.67383 -0.28711,-1.20116 -0.43066,-2.42577 -0.43066,-3.67383 0,-2.49607 0.47973,-4.91966 1.43921,-7.27075 0.95947,-2.35105 2.20678,-4.5344 3.74194,-6.55005 4.80175,-6.43356 10.77831,-10.97017 17.92969,-13.60986 7.15134,-2.63961 14.56637,-4.05611 22.24512,-4.24951 0.28999,4e-5 0.60273,4e-5 0.93823,0 0.3354,4e-5 0.69502,4e-5 1.07886,0 l 0,14.25586 c -3.07036,3e-5 -6.11797,0.19265 -9.14283,0.57788 -3.02493,0.38528 -5.92898,1.10525 -8.71215,2.15991 -2.49613,0.86429 -4.84793,2.06472 -7.05542,3.60132 -2.20754,1.53664 -4.12722,3.40798 -5.75904,5.61401 -0.0967,0.19338 -0.24098,0.43361 -0.43286,0.7207 -0.19191,0.28713 -0.38454,0.62258 -0.57788,1.00635 -0.19045,0.29006 -0.35817,0.57863 -0.50317,0.86572 -0.14504,0.28713 -0.31276,0.62258 -0.50318,1.00635 -0.0967,0.29006 -0.19264,0.62697 -0.28784,1.01074 -0.0952,0.38381 -0.14284,0.71926 -0.14282,1.00635 -2e-5,0.38381 0.14354,0.74416 0.43066,1.08106 0.2871,0.33692 0.76756,0.50538 1.44141,0.50537 3.74412,10e-6 6.52805,-1.24803 8.35181,-3.74414 1.8237,-2.49608 3.26291,-5.2324 4.31762,-8.20899 0.19333,-0.6738 0.38596,-1.29855 0.57788,-1.87427 0.19187,-0.57565 0.38303,-1.1506 0.57349,-1.72485 l 13.53516,4.46045 -3.16407,9.93604 15.40723,0 z"
           style="font-size:144px;fill:#fc5705;font-family:Airstream;-inkscape-font-specification:Airstream"
           id="path3766-8"
           inkscape:connector-curvature="0" />
        <path
           d="m 310.53516,411.98197 -5.4712,0 c -0.57719,0.38675 -1.44144,1.15579 -2.59277,2.30712 -1.15141,1.1514 -2.35111,2.44632 -3.59912,3.88477 -0.38383,0.38674 -0.76761,0.81961 -1.15137,1.29858 -0.38382,0.47903 -0.76761,0.91043 -1.15136,1.29419 -1.24809,1.63186 -2.30424,3.14431 -3.16846,4.53736 -0.86429,1.39308 -1.29642,2.52174 -1.29639,3.38598 0.0967,0.38381 0.26438,0.69509 0.50318,0.93384 0.23873,0.23879 0.64669,0.35817 1.22387,0.35816 l 16.12793,0 -4.60547,14.25586 c -0.67387,0 -1.51469,0 -2.52246,0 -1.00785,0 -2.08744,0 -3.23877,0 -1.1514,0 -2.23172,0 -3.24096,0 -1.00932,0 -1.8494,0 -2.52027,0 -2.97659,0 -5.73635,-0.67163 -8.27929,-2.0149 -2.54299,-1.34326 -4.53518,-3.35961 -5.97657,-6.04907 -0.28712,-0.57421 -0.52663,-1.14916 -0.7185,-1.72485 -0.19191,-0.57568 -0.3362,-1.20043 -0.43286,-1.87427 -0.19338,-0.57421 -0.3135,-1.14989 -0.36036,-1.72705 -0.0469,-0.57714 -0.0703,-1.15282 -0.0703,-1.72705 -10e-6,-3.07323 0.67162,-6.07396 2.01489,-9.0022 1.34325,-2.9282 2.92747,-5.64035 4.75269,-8.13647 l -2.30713,0 c -0.28713,3e-5 -0.5508,0.0242 -0.79101,0.0725 -0.24026,0.0484 -0.50393,0.12088 -0.79102,0.21752 -0.96096,0.28715 -1.87355,0.83866 -2.73779,1.65455 -0.86428,0.81594 -1.4883,1.65603 -1.87207,2.52026 -0.0938,0.0967 -0.16481,0.21682 -0.21314,0.36035 -0.0483,0.14358 -0.0725,0.2637 -0.0725,0.36035 l -1.15136,3.31348 -13.53516,-4.46484 7.91894,-24.76758 13.68018,4.46484 -0.7207,1.87207 28.3667,0 0,14.39649 z"
           style="font-size:144px;fill:#fc5705;font-family:Airstream;-inkscape-font-specification:Airstream"
           id="path3768-2"
           inkscape:connector-curvature="0" />
        <path
           d="m 376.58936,355.67923 -21.88916,67.53516 c -0.0967,0.38381 -0.21685,0.86428 -0.36036,1.4414 -0.14359,0.57717 -0.21537,1.15285 -0.21533,1.72705 -4e-5,0.38381 0.0483,0.74416 0.14502,1.08106 0.0966,0.33693 0.24019,0.69728 0.43067,1.08105 0.28999,0.38381 0.67451,0.67165 1.15356,0.86353 0.47896,0.19191 0.95869,0.3362 1.43921,0.43286 0.19331,0.0938 0.38594,0.14064 0.57788,0.14063 0.19185,1e-5 0.38301,1e-5 0.57349,0 l 9.36035,0 -4.60547,14.25586 -4.75488,0 c -2.68657,0 -5.27788,-0.50391 -7.77393,-1.51172 -2.49613,-1.00781 -4.65677,-2.56787 -6.48193,-4.68018 -2.11234,1.72852 -4.3682,3.12085 -6.76758,4.177 -2.39944,1.05616 -4.79885,1.68091 -7.19824,1.87427 -0.38381,0.0937 -0.74416,0.14063 -1.08106,0.14063 -0.33693,0 -0.69728,0 -1.08105,0 -5.95021,0 -10.29347,-1.72779 -13.02979,-5.18335 -2.73633,-3.45556 -4.10449,-7.48754 -4.10449,-12.09595 0,-0.67088 0.0242,-1.31834 0.0725,-1.94238 0.0483,-0.62401 0.11938,-1.22459 0.21313,-1.80176 0.19336,-1.24803 0.48194,-2.51951 0.86573,-3.81446 0.38378,-1.29489 0.81591,-2.5195 1.29638,-3.67382 2.1123,-4.70212 5.40014,-8.85348 9.86353,-12.45411 4.46336,-3.60054 9.76682,-5.40083 15.9104,-5.40087 l 8.78467,0 13.68017,-42.1919 14.97657,0 z m -33.26221,56.30274 -4.1792,0 c -3.36038,3e-5 -6.36037,1.34402 -9,4.03198 -2.63967,2.68801 -4.29494,5.61696 -4.96582,8.78686 -2e-5,0.19045 -0.0242,0.38161 -0.0725,0.57349 -0.0484,0.19191 -0.0725,0.38454 -0.0725,0.57788 -0.0967,1.24806 0.0234,2.23171 0.36035,2.95093 0.3369,0.71925 1.22459,1.07887 2.66309,1.07886 0.19334,1e-5 0.3618,1e-5 0.50537,0 0.14353,1e-5 0.31199,1e-5 0.50537,0 2.39939,-0.2871 4.65525,-1.36669 6.76758,-3.23877 2.11227,-1.87205 3.59909,-3.91111 4.46045,-6.11719 0.0966,-0.19334 0.16916,-0.38596 0.21753,-0.57788 0.0483,-0.19187 0.12082,-0.3845 0.21752,-0.57788 l 2.59278,-7.48828 z"
           style="font-size:144px;fill:#fc5705;font-family:Airstream;-inkscape-font-specification:Airstream"
           id="path3770-9"
           inkscape:connector-curvature="0" />
        <path
           d="m 424.65234,429.98197 -4.60986,14.25586 -10.22168,0 c -3.55375,0 -6.43436,-1.17554 -8.64184,-3.52662 -2.20756,-2.35106 -3.31132,-5.11156 -3.31128,-8.28149 -4e-5,-0.38378 0.0241,-0.7434 0.0725,-1.07886 0.0483,-0.33543 0.0725,-0.69505 0.0725,-1.07886 0.0937,-0.28709 0.18893,-0.5991 0.28564,-0.93603 0.0967,-0.3369 0.19333,-0.69725 0.29004,-1.08106 0.28708,-0.95799 0.62252,-1.94163 1.00635,-2.95092 0.38375,-1.00926 0.72067,-2.04124 1.01074,-3.09595 0.19039,-0.38377 0.35739,-0.76756 0.50098,-1.15137 0.14351,-0.38376 0.26363,-0.72068 0.36035,-1.01074 0.48043,-1.34177 0.88839,-2.63669 1.22387,-3.88477 0.33542,-1.24801 0.59982,-2.44772 0.79322,-3.59912 -2.87992,1.1514 -5.63968,3.07108 -8.2793,5.75904 -2.63967,2.68801 -4.92043,5.56716 -6.84229,8.63745 -0.86427,1.24806 -1.63185,2.52028 -2.30273,3.81665 -0.67092,1.2964 -1.2466,2.52027 -1.72705,3.67163 l -3.16846,9.79102 -14.97656,0 28.80176,-88.5586 14.97217,0 -14.54151,44.92969 c 1.15134,-0.67378 2.35104,-1.22676 3.59912,-1.65894 1.24802,-0.43208 2.49606,-0.7917 3.74414,-1.07885 0.38376,4e-5 0.79171,-0.0241 1.22388,-0.0725 0.43209,-0.0483 0.84005,-0.0725 1.22388,-0.0725 0.76754,4e-5 1.55928,0.0725 2.37524,0.21753 0.81588,0.14506 1.56075,0.36113 2.23462,0.64819 2.78316,0.96098 4.79878,2.64116 6.04688,5.04053 1.24799,2.39945 1.87201,4.99075 1.87207,7.77392 -6e-5,1.44144 -0.16778,3.0264 -0.50318,4.75488 -0.3355,1.72855 -0.88848,3.55228 -1.65893,5.4712 -0.19048,0.67092 -0.40581,1.36672 -0.646,2.0874 -0.24028,0.72072 -0.45561,1.41652 -0.646,2.0874 -0.1934,0.67385 -0.4102,1.37038 -0.65039,2.0896 -0.24028,0.71925 -0.45561,1.41432 -0.64599,2.08521 l 11.66308,0 z"
           style="font-size:144px;fill:#fc5705;font-family:Airstream;-inkscape-font-specification:Airstream"
           id="path3772-7"
           inkscape:connector-curvature="0" />
        <path
           d="m 480.31787,408.8179 -4.75049,14.68653 -6.91259,0 c -1.2481,5.56642 -4.19975,10.41358 -8.85499,14.5415 -4.6553,4.12793 -9.9595,6.1919 -15.91259,6.1919 -0.28713,0 -0.5508,0 -0.79102,0 -0.24025,0 -0.50539,-0.0469 -0.79541,-0.14063 -0.28713,0 -0.5508,-0.0242 -0.79101,-0.0725 -0.24026,-0.0483 -0.50393,-0.0725 -0.79102,-0.0725 -5.27931,-0.76758 -9.52735,-3.14355 -12.74414,-7.12793 -3.2168,-3.98436 -4.8252,-8.61619 -4.8252,-13.89551 0,-6.81735 2.49609,-12.88986 7.48829,-18.21753 4.99217,-5.32759 10.99216,-7.9914 18,-7.99145 4.22457,5e-5 7.99288,1.10381 11.30493,3.31128 3.31197,2.20756 5.78389,5.13651 7.41577,8.78686 l 12.95947,0 z m -27.07031,14.39649 c -2.49612,-0.48045 -4.6326,-1.68016 -6.40943,-3.59912 -1.77687,-1.91892 -2.80885,-4.22312 -3.09594,-6.9126 -1.53518,0.96097 -2.83083,2.23318 -3.88697,3.81665 -1.05616,1.58352 -1.72779,3.23953 -2.01489,4.96802 -10e-6,0.0967 -10e-6,0.21682 0,0.36035 -10e-6,0.14358 -10e-6,0.26369 0,0.36035 -0.0967,0.0967 -0.14503,0.21682 -0.14502,0.36035 -1e-5,0.14358 -1e-5,0.2637 0,0.36035 0.0967,1.72854 0.64891,3.26443 1.65674,4.60767 1.0078,1.34328 2.51951,2.01491 4.53516,2.01489 1.91892,2e-5 3.71848,-0.62401 5.39868,-1.87207 1.68015,-1.24803 3.0007,-2.73631 3.96167,-4.46484 z"
           style="font-size:144px;fill:#fc5705;font-family:Airstream;-inkscape-font-specification:Airstream"
           id="path3774-6"
           inkscape:connector-curvature="0" />
        <path
           d="m 530.94287,408.8179 -4.75049,14.68653 -6.91259,0 c -1.2481,5.56642 -4.19975,10.41358 -8.85499,14.5415 -4.6553,4.12793 -9.9595,6.1919 -15.91259,6.1919 -0.28713,0 -0.5508,0 -0.79102,0 -0.24025,0 -0.50539,-0.0469 -0.79541,-0.14063 -0.28713,0 -0.5508,-0.0242 -0.79101,-0.0725 -0.24026,-0.0483 -0.50393,-0.0725 -0.79102,-0.0725 -5.27931,-0.76758 -9.52735,-3.14355 -12.74414,-7.12793 -3.2168,-3.98436 -4.8252,-8.61619 -4.8252,-13.89551 0,-6.81735 2.49609,-12.88986 7.48829,-18.21753 4.99217,-5.32759 10.99216,-7.9914 18,-7.99145 4.22457,5e-5 7.99288,1.10381 11.30493,3.31128 3.31197,2.20756 5.78389,5.13651 7.41577,8.78686 l 12.95947,0 z m -27.07031,14.39649 c -2.49612,-0.48045 -4.6326,-1.68016 -6.40943,-3.59912 -1.77687,-1.91892 -2.80885,-4.22312 -3.09594,-6.9126 -1.53518,0.96097 -2.83083,2.23318 -3.88697,3.81665 -1.05616,1.58352 -1.72779,3.23953 -2.01489,4.96802 -10e-6,0.0967 -10e-6,0.21682 0,0.36035 -10e-6,0.14358 -10e-6,0.26369 0,0.36035 -0.0967,0.0967 -0.14503,0.21682 -0.14502,0.36035 -1e-5,0.14358 -1e-5,0.2637 0,0.36035 0.0967,1.72854 0.64891,3.26443 1.65674,4.60767 1.0078,1.34328 2.51951,2.01491 4.53516,2.01489 1.91892,2e-5 3.71848,-0.62401 5.39868,-1.87207 1.68015,-1.24803 3.0007,-2.73631 3.96167,-4.46484 z"
           style="font-size:144px;fill:#fc5705;font-family:Airstream;-inkscape-font-specification:Airstream"
           id="path3776-2"
           inkscape:connector-curvature="0" />
        <path
           d="m 589.77686,355.67923 -21.88916,67.53516 c -0.0967,0.38381 -0.21685,0.86428 -0.36036,1.4414 -0.14359,0.57717 -0.21537,1.15285 -0.21533,1.72705 -4e-5,0.38381 0.0483,0.74416 0.14502,1.08106 0.0966,0.33693 0.24019,0.69728 0.43067,1.08105 0.28999,0.38381 0.67451,0.67165 1.15356,0.86353 0.47896,0.19191 0.95869,0.3362 1.43921,0.43286 0.19331,0.0938 0.38594,0.14064 0.57788,0.14063 0.19185,1e-5 0.38301,1e-5 0.57349,0 l 9.36035,0 -4.60547,14.25586 -4.75488,0 c -2.68657,0 -5.27788,-0.50391 -7.77393,-1.51172 -2.49613,-1.00781 -4.65677,-2.56787 -6.48193,-4.68018 -2.11234,1.72852 -4.3682,3.12085 -6.76758,4.177 -2.39944,1.05616 -4.79885,1.68091 -7.19824,1.87427 -0.38381,0.0937 -0.74416,0.14063 -1.08106,0.14063 -0.33693,0 -0.69728,0 -1.08105,0 -5.95021,0 -10.29347,-1.72779 -13.02979,-5.18335 -2.73633,-3.45556 -4.10449,-7.48754 -4.10449,-12.09595 0,-0.67088 0.0242,-1.31834 0.0725,-1.94238 0.0483,-0.62401 0.11938,-1.22459 0.21313,-1.80176 0.19336,-1.24803 0.48194,-2.51951 0.86573,-3.81446 0.38378,-1.29489 0.81591,-2.5195 1.29638,-3.67382 2.1123,-4.70212 5.40014,-8.85348 9.86353,-12.45411 4.46336,-3.60054 9.76682,-5.40083 15.9104,-5.40087 l 8.78467,0 13.68017,-42.1919 14.97657,0 z m -33.26221,56.30274 -4.1792,0 c -3.36038,3e-5 -6.36037,1.34402 -9,4.03198 -2.63967,2.68801 -4.29494,5.61696 -4.96582,8.78686 -2e-5,0.19045 -0.0242,0.38161 -0.0725,0.57349 -0.0483,0.19191 -0.0725,0.38454 -0.0725,0.57788 -0.0967,1.24806 0.0234,2.23171 0.36035,2.95093 0.3369,0.71925 1.22459,1.07887 2.66309,1.07886 0.19334,1e-5 0.3618,1e-5 0.50537,0 0.14353,1e-5 0.31199,1e-5 0.50537,0 2.39939,-0.2871 4.65525,-1.36669 6.76758,-3.23877 2.11227,-1.87205 3.59909,-3.91111 4.46045,-6.11719 0.0967,-0.19334 0.16916,-0.38596 0.21753,-0.57788 0.0483,-0.19187 0.12082,-0.3845 0.21752,-0.57788 l 2.59278,-7.48828 z"
           style="font-size:144px;fill:#fc5705;font-family:Airstream;-inkscape-font-specification:Airstream"
           id="path3778-2"
           inkscape:connector-curvature="0" />
      </g>
    </g>
  </g>
</svg>
