<?xml version="1.0" encoding="UTF-8" standalone="no"?>
<!-- Created with Inkscape (http://www.inkscape.org/) -->

<svg
   xmlns:dc="http://purl.org/dc/elements/1.1/"
   xmlns:cc="http://creativecommons.org/ns#"
   xmlns:rdf="http://www.w3.org/1999/02/22-rdf-syntax-ns#"
   xmlns:svg="http://www.w3.org/2000/svg"
   xmlns="http://www.w3.org/2000/svg"
   xmlns:sodipodi="http://sodipodi.sourceforge.net/DTD/sodipodi-0.dtd"
   xmlns:inkscape="http://www.inkscape.org/namespaces/inkscape"
   id="svg2"
   version="1.1"
   inkscape:version="0.48.0 r9654"
   width="72"
   height="72"
   sodipodi:docname="537968.png">
  <metadata
     id="metadata8">
    <rdf:RDF>
      <cc:Work
         rdf:about="">
        <dc:format>image/svg+xml</dc:format>
        <dc:type
           rdf:resource="http://purl.org/dc/dcmitype/StillImage" />
        <dc:title></dc:title>
      </cc:Work>
    </rdf:RDF>
  </metadata>
  <defs
     id="defs6" />
  <sodipodi:namedview
     pagecolor="#ffffff"
     bordercolor="#666666"
     borderopacity="1"
     objecttolerance="10"
     gridtolerance="10"
     guidetolerance="10"
     inkscape:pageopacity="0"
     inkscape:pageshadow="2"
     inkscape:window-width="1280"
     inkscape:window-height="962"
     id="namedview4"
     showgrid="false"
     inkscape:zoom="8.0833333"
     inkscape:cx="37.883605"
     inkscape:cy="40.951212"
     inkscape:window-x="-8"
     inkscape:window-y="-8"
     inkscape:window-maximized="1"
     inkscape:current-layer="svg2" />
  <path
     style="fill:#000000"
     d="m 29.265463,54.816806 c -1.42037,-0.82729 -1.75,-2.43118 -1.75,-8.515044 0,-8.304509 0.63621,-7.237673 -10.08954,-16.918737 -6.582725,-5.941567 -9.181776,-9.615501 -8.344972,-11.796179 0.335972,-0.875529 2.70868,-2.401436 5.272686,-3.390905 6.763585,-2.610118 33.560066,-2.610118 40.323646,0 2.56401,0.989469 4.93672,2.515376 5.27269,3.390905 0.8368,2.180678 -1.76225,5.854612 -8.34497,11.796179 -10.72736,9.68251 -10.08954,8.612071 -10.08954,16.933244 0,6.401727 -0.28551,7.663067 -1.93426,8.545457 -2.44939,1.31087 -8.02971,1.28657 -10.31574,-0.0449 z m 8.66821,-1.52689 c 1.24208,-0.47663 1.58179,-2.17149 1.58179,-7.891789 l 0,-7.284802 9,-8.216418 c 4.95,-4.51903 9,-8.842724 9,-9.608209 0,-0.765485 -0.1882,-1.391791 -0.41822,-1.391791 -0.23001,0 -1.20383,-0.301472 -2.16404,-0.669939 -1.07451,-0.412326 -1.5028,-0.27671 -1.11382,0.352678 0.34761,0.56244 0.0587,1.806625 -0.64195,2.764857 -3.03133,4.145591 -34.292616,4.145591 -37.323946,0 -0.700676,-0.958232 -1.036814,-2.125945 -0.746973,-2.594918 0.62382,-1.009362 0.136214,-1.068986 -2.009263,-0.245689 -2.931912,1.12508 -1.617156,3.144303 7.418213,11.393011 l 8.999999,8.216418 0,7.308458 c 0,4.911093 0.41003,7.473913 1.25,7.812843 1.80965,0.73021 5.33846,0.75743 7.16821,0.0553 z M 24.765464,22.234626 c -0.6875,-0.277412 -1.8125,-0.277412 -2.5,0 -0.6875,0.277413 -0.125,0.504386 1.25,0.504386 1.375,0 1.9375,-0.226973 1.25,-0.504386 z m 21.999999,0 c -0.6875,-0.277412 -1.8125,-0.277412 -2.5,0 -0.6875,0.277413 -0.125,0.504386 1.25,0.504386 1.375,0 1.9375,-0.226973 1.25,-0.504386 z m 3.74823,-3.129437 c 6.64071,-2.488258 -18.67224,-4.329391 -29.018012,-2.110619 -2.815024,0.603714 -4.906161,1.309726 -4.646972,1.568915 2.183693,2.183693 28.166984,2.601791 33.664984,0.541704 z M 23.702964,14.213793 c -0.721875,-0.288871 -1.584375,-0.253344 -1.916667,0.07895 -0.332291,0.332292 0.258334,0.568641 1.3125,0.52522 1.164943,-0.04798 1.4019,-0.284941 0.604167,-0.604167 z m 22.999999,0 c -0.72188,-0.288871 -1.58438,-0.253344 -1.91667,0.07895 -0.33229,0.332292 0.25833,0.568641 1.3125,0.52522 1.16494,-0.04798 1.4019,-0.284941 0.60417,-0.604167 z"
     id="path3009"
     inkscape:connector-curvature="0" />
  <g
     inkscape:groupmode="layer"
     id="layer2"
     inkscape:label="Mod">
    <path
       style="fill:#000000;fill-opacity:1;stroke:none"
       id="path3785"
       d="m 24.184848,20.523858 c 0.02013,-0.02298 0.07262,-0.09352 0.111177,-0.09482 0.353734,-0.01189 0.802797,0.178593 1.11367,0.330086 0.08923,0.05243 0.207629,0.117576 0.297336,0.181302 0.004,0.0028 -0.0095,-0.0026 -0.01399,-0.0047 -0.04205,-0.01976 -0.07906,-0.05765 -0.125415,-0.06084 -1.111773,-0.07644 -0.827665,-0.204821 -1.272786,0.03479 0.0034,0.0038 0.01443,0.0084 0.01025,0.01128 -0.104697,0.07219 -0.482186,0.197475 -0.396079,0.348585 0.173886,-0.213834 3.197959,2.245284 3.024073,2.459119 l 0,0 c -0.261122,0.375167 -0.640387,0.64287 -1.08052,0.765693 -0.09967,0.03241 -0.194334,0.09213 -0.29902,0.09723 -0.449451,0.02186 -0.900711,0.01068 -1.34984,-0.01702 -0.301168,-0.01857 -0.694706,-0.232861 -1.015635,-0.251686 -0.393444,-0.0451 -0.799799,-0.287805 -1.139582,-0.473016 -0.235185,-0.151063 1.90117,-3.477095 2.136356,-3.326032 z"
       inkscape:connector-curvature="0" />
    <path
       style="fill:#000000;fill-opacity:1;stroke:none"
       id="path3787"
       d="m 20.647898,20.856836 c 0.120575,-0.05933 0.288134,-0.149291 0.416364,-0.172061 0.04507,-0.008 0.0898,0.01975 0.135511,0.02219 0.100799,0.0054 0.201936,-0.002 0.302827,0.0013 1.642031,0.05286 1.033476,-0.110538 1.999499,0.243009 0.447998,0.214691 0.925946,0.480459 1.229383,0.89065 0.0056,0.0075 -0.01878,-0.0046 -0.02611,-0.0104 -0.08233,-0.0655 -0.161236,-0.135181 -0.241853,-0.202772 -0.0038,-0.01458 0.0037,-0.04433 -0.01131,-0.04373 -1.911625,0.07543 -1.807659,-0.283363 -2.672351,1.66392 -0.157142,0.353885 0.01066,0.49057 0.178297,0.682149 -0.112175,-0.244517 3.345818,-1.830912 3.457993,-1.586395 l 0,0 c 0.05564,0.07276 0.139479,0.130896 0.166912,0.218289 0.290628,0.925841 0.168735,1.821376 -0.85261,2.515479 -0.517294,0.351551 -1.243391,0.149404 -1.868423,0.172145 -0.09716,0.0035 -0.184039,-0.06275 -0.276058,-0.09412 -0.167063,-0.09274 -0.334963,-0.183977 -0.501189,-0.278204 -0.06796,-0.03852 -0.453482,-0.301444 -0.56305,-0.298288 -0.03506,0.001 0.09716,0.110702 0.06513,0.08264 0.358151,0.295555 0.0031,0.03204 1.129952,0.08916 0.06067,0.0031 -0.120527,0.01536 -0.180578,0.02452 -0.1351,0.0206 -0.268274,0.06982 -0.40484,0.06473 -0.09114,-0.0034 -0.399246,-0.130633 -0.50472,-0.172062 -0.269556,0.06921 -1.248337,-3.742891 -0.978781,-3.812101 z"
       inkscape:connector-curvature="0" />
    <path
       style="fill:#000000;fill-opacity:1;stroke:none"
       id="path3799"
       d="m 31.047432,30.49893 c 0.06111,-0.02998 -0.017,0.01799 -0.01277,-0.07046 0.0012,-0.02581 0.283478,0.07206 0.295737,0.07633 0.15526,0.02542 0.307225,0.06802 0.460714,0.10245 0.177839,0.04529 0.360118,0.06155 0.54128,0.08702 0.172748,0.0056 0.36238,0.09544 0.530549,0.03208 0.02754,-0.0038 0.05497,-0.0084 0.08263,-0.01127 0.07046,-0.0072 0.724123,-0.01865 0.380044,-0.02953 -0.225114,-0.0071 -1.268586,-0.01564 -0.772825,-0.01149 0.343967,-0.01147 0.681572,-0.05804 1.021189,-0.107771 0.398798,-0.02894 0.793802,-0.09083 1.189754,-0.14467 0.361277,-0.0531 0.723978,-0.08876 1.080539,-0.169522 0.382264,-0.09485 0.74821,-0.244152 1.115344,-0.384575 0.428724,-0.162769 0.846978,-0.350902 1.270118,-0.527331 0.365373,-0.149732 0.731833,-0.296824 1.092682,-0.457246 0.333651,-0.15262 0.659968,-0.320452 0.986608,-0.487342 0.312541,-0.15646 0.612845,-0.335441 0.918504,-0.504566 0.194082,-0.107579 0.09428,-0.0516 0.299309,-0.16814 0.222341,-0.183196 2.813126,2.96117 2.590786,3.144367 l 0,0 c -0.194043,0.112697 -0.09383,0.05333 -0.300387,0.178524 -0.323045,0.190331 -0.644788,0.382572 -0.966712,0.574805 -0.354655,0.201198 -0.711253,0.398868 -1.069866,0.592925 -0.395543,0.210188 -0.797307,0.40739 -1.205482,0.591933 -0.435501,0.196849 -0.869897,0.395237 -1.300536,0.602574 -0.507225,0.220513 -1.024172,0.418726 -1.558074,0.56555 -0.46757,0.133282 -0.93895,0.261358 -1.422504,0.321706 -0.452763,0.07384 -0.907244,0.137304 -1.3615,0.200325 -0.414282,0.01989 -0.824987,0.06343 -1.239871,0.07445 -0.683586,0.04409 -1.371097,0.03352 -2.048934,-0.06584 -0.311144,-0.05452 -0.621579,-0.114535 -0.929669,-0.184401 -0.285476,-0.07066 -0.566492,-0.157816 -0.84414,-0.254761 -0.276914,-0.102045 -0.553848,-0.210244 -0.805581,-0.366379 -0.159411,-0.09795 -0.326008,-0.200589 -0.44948,-0.34247 -0.20204,-0.172007 2.230505,-3.029271 2.432544,-2.857264 z"
       inkscape:connector-curvature="0" />
    <path
       style="fill:#000000;fill-opacity:1;stroke:none"
       id="path3801"
       d="m 23.243466,21.085753 c 0.159103,0.110225 -0.03813,-0.08175 -0.0215,-0.09689 0.007,-0.0064 0.08672,0.04132 0.136734,0.06961 0.136364,0.0031 0.251651,0.08278 0.373135,0.150901 0.191971,0.126144 0.384384,0.25394 0.588247,0.360272 0.220391,0.101913 0.421933,0.242152 0.622819,0.377674 0.207897,0.142609 0.425016,0.269865 0.63389,0.411342 0.250116,0.155585 0.487421,0.32779 0.729451,0.495563 0.03198,0.02053 0.06396,0.04106 0.09594,0.06159 0.206713,0.194315 -2.541318,3.117676 -2.748031,2.923361 l 0,0 c -0.04653,-0.03307 -0.09306,-0.06613 -0.139594,-0.0992 -0.215676,-0.155452 -0.434355,-0.306247 -0.648212,-0.4641 -0.204595,-0.136309 -0.408992,-0.2727 -0.609335,-0.415225 -0.170709,-0.111322 -0.348291,-0.211407 -0.517226,-0.325467 -0.125164,-0.08534 -0.2998,-0.212446 -0.404492,-0.265133 -0.145212,-0.06563 -0.279656,-0.150411 -0.408937,-0.243571 -0.129523,-0.07624 -0.281971,-0.209738 -0.34924,-0.308657 -0.186115,-0.18854 2.480239,-2.820612 2.666355,-2.632072 z"
       inkscape:connector-curvature="0" />
    <path
       style="fill:#000000;fill-opacity:1;stroke:none"
       id="path3803"
       d="m 41.122798,21.931278 c 0.33374,-0.201291 1.107868,-0.04626 1.216617,-0.04568 0.152259,8.12e-4 0.303665,0.0031 0.45604,0.0017 0.297529,-0.0053 0.594444,0.01534 0.891227,0.03309 0.277529,0.0061 0.556143,0.05172 0.833611,0.03293 0.350927,-0.0063 0.984758,-0.02368 -0.606724,-0.0036 -0.03355,4.24e-4 0.06692,0.0051 0.100329,0.0083 0.134537,0.01282 0.03662,0.01154 0.200714,0.003 0.296371,-0.02558 0.591582,-0.06151 0.887907,-0.08825 0.32392,-0.0303 0.648108,-0.05752 0.972463,-0.0827 0.268702,-0.03409 0.540388,-0.02236 0.809347,-0.04522 0.251045,-0.03102 0.501651,-0.04972 0.750362,-0.09626 0.252179,-0.05212 0.506351,-0.08467 0.757021,-0.143606 0.242922,-0.03951 0.475773,-0.122306 0.708281,-0.200926 0.269053,-0.08613 0.537161,-0.174444 0.804186,-0.266765 0.249439,-0.09287 0.495542,-0.19539 0.73729,-0.306826 0.24834,-0.12131 0.494377,-0.246717 0.734926,-0.382857 0.204236,-0.09947 0.391961,-0.228197 0.572859,-0.364755 0.234007,-0.189872 0.474332,-0.371693 0.711281,-0.557829 0.240929,-0.19352 0.480654,-0.38844 0.725481,-0.577039 0.227264,-0.158468 0.435446,-0.342101 0.649051,-0.518059 0.181947,-0.148924 0.364345,-0.296307 0.550967,-0.43866 0.01335,-0.0067 0.02695,-0.02734 0.04004,-0.02013 0.0041,0.0023 -0.02969,0.148157 -0.03878,0.215742 -0.02238,0.159677 -0.01112,0.319234 0.01329,0.477737 0.03857,0.237827 0.154908,0.440533 0.300134,0.628234 0.09466,0.134317 0.22143,0.237633 0.336614,0.350888 -0.427739,0.146853 0.719172,0.373152 0.915452,-0.02564 0.06445,-0.100575 0.144999,-0.189228 0.217916,-0.283801 0.09267,-0.127203 0.154644,-0.269653 0.198859,-0.419582 0.01487,-0.0412 0.01462,-0.102134 0.02887,-0.04401 0.0123,-0.03743 0.02022,0.0498 0.02601,0.06368 0.03972,0.273711 -3.831154,0.835368 -3.870869,0.561656 l 0,0 c -0.02215,-0.161267 -0.04369,-0.322585 -0.04882,-0.485574 -0.0049,-0.343907 0.01481,-0.689133 0.107485,-1.022382 0.128348,-0.434068 0.315601,-0.845562 0.62722,-1.181551 0.311648,-0.321418 0.662484,-0.590056 1.090742,-0.738071 0.625863,-0.204977 1.300672,-0.233314 1.949122,-0.09571 0.414072,0.116334 0.80264,0.297022 1.123484,0.59017 0.347851,0.348005 0.627309,0.740147 0.749118,1.225183 0.101939,0.454497 0.132923,0.914455 0.01908,1.371539 -0.12836,0.469748 -0.324526,0.916484 -0.64373,1.290494 -0.223375,0.257429 -0.462196,0.501942 -0.734967,0.707752 -0.244089,0.196676 -0.484917,0.397181 -0.72361,0.600414 -0.232112,0.174644 -0.464086,0.349347 -0.687495,0.535181 -0.224054,0.177203 -0.452485,0.348637 -0.677108,0.524988 -0.290878,0.247699 -0.586473,0.4905 -0.901727,0.707002 -0.299685,0.188225 -0.603116,0.371123 -0.919319,0.530584 -0.322978,0.175945 -0.65208,0.338822 -0.989117,0.486222 -0.329212,0.144394 -0.663936,0.279409 -1.007553,0.385579 -0.321436,0.09995 -0.646631,0.185548 -0.967453,0.287113 -0.290527,0.06902 -0.575221,0.162039 -0.871704,0.203993 -0.313034,0.06413 -0.621426,0.150794 -0.94001,0.184951 -0.32164,0.05415 -0.641786,0.11025 -0.968817,0.119793 -0.307406,0.02536 -0.614581,0.05336 -0.921448,0.08462 -0.316517,0.03088 -0.633091,0.04064 -0.949965,0.06574 -0.181444,0.0177 -0.365471,0.05704 -0.547881,0.05953 -0.488387,0.0067 -0.97943,0.0111 -1.468401,-0.0056 -0.320416,-0.02286 -0.641592,-0.03154 -0.962241,-0.05094 -0.31913,-0.01889 -0.639004,-0.03712 -0.954425,-0.09222 -0.04501,-0.008 -0.0902,-0.0151 -0.135042,-0.02399 -0.667928,-0.132416 1.278313,0.09664 0.659088,-0.08697 -0.257571,0.06613 -1.192831,-3.576465 -0.93526,-3.642598 z"
       inkscape:connector-curvature="0" />
    <path
       style="fill:#000000;fill-opacity:1;stroke:none"
       id="path3805"
       d="m 58.710343,19.325604 c -0.01392,0.175931 -0.05814,0.348894 -0.111779,0.51646 -0.09554,0.291746 -0.236427,0.564318 -0.381916,0.833481 -0.146216,0.266304 -0.304182,0.525001 -0.476608,0.7751 -0.170677,0.231 -0.340737,0.46272 -0.517933,0.688838 -0.192885,0.237349 -0.400177,0.462411 -0.607511,0.68707 -0.110203,0.122302 -0.226341,0.238893 -0.342807,0.355157 -0.178365,0.219615 -3.284201,-2.302846 -3.105836,-2.522461 l 0,0 c 0.08548,-0.07323 0.169109,-0.148467 0.246237,-0.230662 0.158542,-0.15826 0.316625,-0.316986 0.475938,-0.474468 0.151696,-0.16628 0.285017,-0.347245 0.427193,-0.521229 0.126608,-0.146763 0.234031,-0.308353 0.328874,-0.477302 0.08271,-0.121198 0.16201,-0.23731 0.24136,-0.358003 0.03662,-0.06903 0.10313,-0.298915 0.205154,-0.274798 0.07091,-0.255947 3.690544,0.746871 3.619634,1.002817 z"
       inkscape:connector-curvature="0" />
    <path
       style="fill:#000000;fill-opacity:1;stroke:none"
       id="path3807"
       d="m 56.895171,22.626874 c -0.04921,0.121261 -0.07371,0.16213 -0.155165,0.29146 -0.126992,0.203503 -0.280096,0.38768 -0.441279,0.564628 -0.151769,0.153202 -0.299811,0.310178 -0.452323,0.462842 -0.189214,0.187248 -0.391104,0.360799 -0.588621,0.539043 -0.221278,0.187438 -0.456497,0.357675 -0.69184,0.526832 -0.220298,0.156488 -0.452661,0.294578 -0.682317,0.43658 -0.230835,0.147411 -0.46136,0.295265 -0.69134,0.444014 -0.232599,0.144232 -0.466649,0.286069 -0.699842,0.429373 -0.248787,0.162597 -0.494731,0.328559 -0.74884,0.483055 -0.25376,0.156024 -0.509851,0.307948 -0.761248,0.467752 -0.2733,0.190568 -0.55795,0.363988 -0.841967,0.537907 -0.26951,0.166506 -0.538524,0.333789 -0.807531,0.50111 -0.250884,0.157743 -0.502038,0.314848 -0.748066,0.48011 -0.241188,0.151658 -0.463349,0.331405 -0.689623,0.50405 -0.253803,0.195155 -0.501833,0.397528 -0.757355,0.590457 -0.267037,0.195565 -0.531463,0.394616 -0.804177,0.582234 -0.286104,0.190847 -0.553601,0.407041 -0.838935,0.598969 -0.292108,0.184799 -0.576341,0.381288 -0.867685,0.56722 -0.336763,0.226087 -0.678591,0.444602 -1.033671,0.640792 -0.301734,0.157893 -0.606218,0.310499 -0.906424,0.47129 -0.308612,0.155761 -0.609235,0.326856 -0.916551,0.484916 -0.313732,0.16087 -0.627039,0.322314 -0.938953,0.486773 -0.334001,0.167349 -0.678104,0.312549 -1.016121,0.471592 -0.322391,0.134415 -0.642328,0.274503 -0.962712,0.413659 -0.299681,0.118809 -0.589566,0.258863 -0.878074,0.402097 -0.332229,0.165214 -0.667996,0.324162 -1.010904,0.46609 -0.298049,0.116648 -0.590439,0.247053 -0.887323,0.366514 -0.266932,0.107534 -0.531461,0.220383 -0.795163,0.335588 -0.257747,0.117378 -0.511446,0.242962 -0.764866,0.369322 -0.2988,0.170285 -0.608497,0.318491 -0.920026,0.463667 -0.260893,0.10983 -0.516076,0.232327 -0.773556,0.349748 -0.275304,0.139117 -0.551821,0.274349 -0.835529,0.395889 -0.283159,0.132843 -0.570034,0.257237 -0.856681,0.382215 -0.284814,0.115089 -0.56176,0.248112 -0.843555,0.370256 -0.270147,0.101875 -0.531456,0.224974 -0.800412,0.329741 -0.12714,0.01476 -0.237577,0.07208 -0.352899,0.122342 -0.211206,0.18631 -2.846017,-2.800603 -2.63481,-2.986912 l 0,0 c 0.256878,-0.182109 0.525628,-0.347871 0.802167,-0.498522 0.264026,-0.111707 0.533853,-0.209404 0.792602,-0.333797 0.271198,-0.101325 0.532711,-0.223185 0.79323,-0.349186 0.260628,-0.109016 0.523011,-0.213668 0.780901,-0.329012 0.262561,-0.127282 0.536739,-0.22664 0.795152,-0.361897 0.280238,-0.13978 0.564036,-0.272389 0.846593,-0.40738 0.244632,-0.102423 0.487592,-0.210951 0.725351,-0.32761 0.288034,-0.160955 0.580728,-0.313948 0.876993,-0.459153 0.299688,-0.153084 0.604279,-0.297335 0.913839,-0.429319 0.30311,-0.135558 0.610042,-0.262497 0.912032,-0.400705 0.271128,-0.111425 0.547875,-0.209649 0.813096,-0.335154 0.333076,-0.165187 0.65461,-0.352899 0.993459,-0.506611 0.336284,-0.150843 0.671084,-0.305223 1.011095,-0.44757 0.312794,-0.10976 0.60301,-0.270432 0.914555,-0.384003 0.297545,-0.112117 0.573709,-0.272506 0.859663,-0.410216 0.28071,-0.140137 0.560223,-0.280615 0.833606,-0.43539 0.309273,-0.170271 0.614743,-0.347477 0.928044,-0.51042 0.274294,-0.134893 0.549268,-0.267241 0.803107,-0.439297 0.292378,-0.191748 0.591062,-0.372907 0.880058,-0.569953 0.26778,-0.163241 0.542761,-0.314362 0.790089,-0.509564 0.234788,-0.159512 0.476928,-0.30652 0.703851,-0.477647 0.244628,-0.181124 0.485532,-0.366412 0.721541,-0.558778 0.268775,-0.208826 0.539354,-0.41522 0.804239,-0.629031 0.274152,-0.195022 0.551016,-0.386532 0.837789,-0.5627 0.271298,-0.178739 0.546007,-0.352325 0.821149,-0.525053 0.272138,-0.176182 0.548734,-0.345192 0.826025,-0.513109 0.268405,-0.173938 0.543564,-0.336733 0.817894,-0.501047 0.2523,-0.157259 0.516378,-0.293329 0.766014,-0.454769 0.231053,-0.14375 0.460914,-0.290391 0.699664,-0.421054 0.227338,-0.133506 0.445533,-0.281535 0.671806,-0.41678 0.205156,-0.132573 0.413569,-0.259847 0.628718,-0.375479 0.184267,-0.107764 0.353797,-0.237884 0.535805,-0.349331 0.164814,-0.0792 0.292824,-0.226873 0.443104,-0.329605 0.150278,-0.10697 0.270415,-0.24575 0.409022,-0.365898 0.0766,-0.05536 0.16378,-0.09528 0.227089,-0.173182 0.04666,-0.03954 0.177285,-0.216171 0.204566,-0.173009 0.136331,-0.227157 3.348807,1.70086 3.212476,1.928016 z"
       inkscape:connector-curvature="0" />
    <path
       style="fill:#000000;fill-opacity:1;stroke:none"
       id="path3809"
       d="m 52.938508,26.25883 c -0.106963,0.144757 0.203109,-0.182998 0.0252,0.01279 -0.168925,0.168967 -0.336614,0.339393 -0.510752,0.502977 -0.216391,0.193915 -0.43748,0.382512 -0.665554,0.562547 -0.219473,0.176172 -0.4537,0.332368 -0.68279,0.495441 -0.226833,0.164506 -0.454762,0.327502 -0.683669,0.489111 -0.248536,0.172448 -0.48323,0.363619 -0.729611,0.538917 -0.236269,0.160841 -0.472828,0.321069 -0.699349,0.495473 -0.258263,0.190367 -0.522284,0.372692 -0.782036,0.561032 -0.236701,0.176905 -0.487051,0.333945 -0.725026,0.508869 -0.223658,0.177033 -0.455768,0.343225 -0.680269,0.519018 -0.217532,0.180183 -0.422143,0.375248 -0.638573,0.556754 -0.25164,0.256147 -0.523912,0.489649 -0.800802,0.717714 -0.269905,0.222074 -0.551581,0.429016 -0.837687,0.629564 -0.275193,0.192247 -0.545494,0.390644 -0.826742,0.574026 -0.232504,0.147537 -0.466977,0.291746 -0.709181,0.422801 -0.182687,0.09466 -0.333963,0.235176 -0.491304,0.365182 -0.177714,0.147467 -0.33284,0.316018 -0.485501,0.48855 -0.194443,0.233821 -0.407333,0.450297 -0.616625,0.670364 -0.238538,0.257649 -0.47473,0.51811 -0.725997,0.763568 -0.20309,0.181559 -0.404507,0.363771 -0.591873,0.561574 -0.221849,0.227618 -0.40897,0.485011 -0.619436,0.722604 -0.255117,0.276134 -0.520797,0.541647 -0.801852,0.791295 -0.178039,0.178353 -0.400703,0.309518 -0.581524,0.481312 -0.189277,0.194474 -0.372291,0.394658 -0.544712,0.604212 -0.227699,0.284594 -0.47396,0.553007 -0.730786,0.811326 -0.228596,0.22562 -0.468686,0.439033 -0.71082,0.64989 -0.23968,0.2117 -0.4822,0.419968 -0.731057,0.620811 -0.251971,0.201349 -0.515287,0.387608 -0.783306,0.566805 -0.236242,0.157149 -0.471737,0.31544 -0.708818,0.471325 -0.258453,0.179939 -0.522744,0.350934 -0.789196,0.518838 -0.297024,0.177123 -0.589038,0.362382 -0.891054,0.530916 -0.341224,0.183436 -0.709882,0.305954 -1.075822,0.429192 -0.271391,0.09276 -0.554175,0.142147 -0.830651,0.215291 -0.186943,0.048 -0.368644,0.116386 -0.560471,0.141271 -0.250325,0.132232 -2.120374,-3.407888 -1.87005,-3.54012 l 0,0 c 0.182231,-0.06961 0.368603,-0.115673 0.557087,-0.165842 0.30025,-0.09063 0.598316,-0.186666 0.908506,-0.239079 0.1742,-0.02201 0.342304,-0.06905 0.515305,-0.09363 0.235411,-0.05839 0.425714,-0.219768 0.634577,-0.335473 0.237041,-0.13366 0.467097,-0.280346 0.697628,-0.424081 0.235321,-0.154645 0.472136,-0.306972 0.706696,-0.462743 0.20221,-0.131862 0.409936,-0.255924 0.602698,-0.401653 0.214354,-0.15197 0.413254,-0.323799 0.612818,-0.494425 0.191834,-0.161162 0.385429,-0.320061 0.573057,-0.486167 0.167511,-0.154994 0.333059,-0.312419 0.473838,-0.492988 0.218325,-0.275171 0.434769,-0.552056 0.678076,-0.806054 0.252979,-0.286676 0.514035,-0.561178 0.824124,-0.787624 0.20465,-0.162768 0.403479,-0.329342 0.585377,-0.517923 0.231872,-0.20206 0.396685,-0.462392 0.602227,-0.69116 0.241213,-0.260726 0.472632,-0.530803 0.736434,-0.769604 0.209322,-0.178239 0.412887,-0.356961 0.597325,-0.56209 0.192503,-0.205239 0.397096,-0.393921 0.590014,-0.598124 0.22096,-0.239916 0.428207,-0.492643 0.662332,-0.719985 0.256637,-0.25546 0.529074,-0.494952 0.80748,-0.72637 0.261488,-0.203515 0.537826,-0.381904 0.82515,-0.546833 0.240428,-0.140321 0.478805,-0.281362 0.698463,-0.453748 0.224149,-0.155688 0.452346,-0.30631 0.664428,-0.478518 0.227563,-0.176388 0.453023,-0.356868 0.668024,-0.548102 0.243484,-0.235821 0.506392,-0.450245 0.754992,-0.680663 0.24831,-0.213041 0.502718,-0.41708 0.763709,-0.614445 0.258006,-0.203237 0.515968,-0.405642 0.788593,-0.589143 0.257926,-0.182962 0.507606,-0.377859 0.774255,-0.548355 0.268255,-0.181905 0.522267,-0.384381 0.795922,-0.558631 0.235208,-0.14822 0.464741,-0.301791 0.68353,-0.474893 0.223401,-0.158738 0.449956,-0.31295 0.675321,-0.468855 0.20349,-0.146896 0.409133,-0.290469 0.622405,-0.422787 0.188962,-0.137505 0.37645,-0.275976 0.557833,-0.4236 0.181348,-0.124574 0.340746,-0.274961 0.5134,-0.411022 0.215098,-0.160136 0.41763,-0.416016 0.689011,-0.469685 0.213055,-0.158891 2.460112,2.85416 2.247057,3.013051 z"
       inkscape:connector-curvature="0" />
    <path
       style="fill:#000000;fill-opacity:1;stroke:none"
       id="path3811"
       d="m 28.128172,37.773167 c 0.111892,-0.06957 0.238501,-0.08534 0.365659,-0.104714 0.308272,-0.06383 -0.07194,0.187148 0.228277,0.05515 0.220742,-0.09386 0.435128,-0.201377 0.653798,-0.299756 0.222691,-0.107415 0.445034,-0.216858 0.664743,-0.330571 0.245584,-0.124777 0.493075,-0.245549 0.737222,-0.373199 0.294399,-0.14682 0.575521,-0.317059 0.870738,-0.462596 0.300696,-0.143787 0.61412,-0.25661 0.92182,-0.383895 0.294682,-0.125892 0.593345,-0.241958 0.890289,-0.362362 0.300467,-0.129521 0.599966,-0.261224 0.900662,-0.390305 0.265456,-0.10992 0.53112,-0.219036 0.795602,-0.331356 0.160277,-0.07369 0.319357,-0.149858 0.483553,-0.214408 0.225133,-0.17311 2.673288,3.010748 2.448155,3.183858 l 0,0 c -0.189938,0.116934 -0.386255,0.22202 -0.589973,0.313313 -0.290185,0.14525 -0.585076,0.282283 -0.885685,0.404526 -0.290754,0.123954 -0.581516,0.248807 -0.864231,0.390408 -0.319208,0.14866 -0.64049,0.29348 -0.97107,0.415311 -0.293265,0.116139 -0.581747,0.244304 -0.88463,0.333537 -0.242704,0.08291 -0.486388,0.149717 -0.701524,0.298237 -0.248926,0.122905 -0.490495,0.260507 -0.743056,0.375943 -0.260064,0.128914 -0.517926,0.261498 -0.780915,0.384479 -0.232111,0.109066 -0.466758,0.213612 -0.701193,0.317355 -0.399967,0.178325 -0.77409,0.446046 -1.226154,0.470418 -0.228283,0.0057 -0.468436,0.04657 -0.680338,-0.06045 -0.256604,0.06589 -1.188353,-3.56304 -0.931749,-3.628924 z"
       inkscape:connector-curvature="0" />
    <path
       style="fill:#000000;fill-opacity:1;stroke:none"
       id="path3813"
       d="m 50.957027,28.68873 c -0.118731,0.304127 -0.334628,0.547831 -0.548843,0.787459 -0.28021,0.290792 -0.609822,0.526368 -0.934687,0.763693 -0.303976,0.211501 -0.620814,0.403456 -0.936957,0.595969 -0.271085,0.168461 -0.538773,0.342505 -0.802028,0.523002 -0.268215,0.184285 -0.536461,0.368562 -0.803247,0.554916 -0.259628,0.183321 -0.513295,0.374876 -0.76885,0.563793 -0.261952,0.20124 -0.531775,0.391656 -0.800534,0.583578 -0.250411,0.197158 -0.520369,0.366972 -0.772934,0.560932 -0.270642,0.205507 -0.555197,0.391537 -0.834557,0.584762 -0.249824,0.180896 -0.514273,0.339087 -0.774311,0.504123 -0.210894,0.141974 -0.419407,0.287473 -0.618218,0.445969 -0.208628,0.15462 -0.392146,0.339379 -0.58701,0.510305 -0.195674,0.159988 -0.357018,0.355734 -0.523629,0.544521 -0.17656,0.183814 -0.33788,0.381589 -0.496134,0.581182 -0.189395,0.258031 -0.399433,0.498897 -0.606499,0.742453 -0.232053,0.282977 -0.465047,0.563994 -0.71912,0.82757 -0.244897,0.250861 -0.503542,0.487565 -0.761518,0.724751 -0.264809,0.2456 -0.54485,0.473785 -0.827807,0.697934 -0.166327,0.12826 -0.08442,0.06532 -0.245689,0.188837 -0.198609,0.204752 -3.094232,-2.60401 -2.895623,-2.808761 l 0,0 c 0.162281,-0.124454 0.08238,-0.06367 0.239659,-0.18242 0.213167,-0.157726 0.420556,-0.323552 0.620352,-0.497921 0.223534,-0.203645 0.449535,-0.404625 0.667196,-0.614598 0.201019,-0.18815 0.407027,-0.371358 0.577442,-0.589016 0.180844,-0.211766 0.374766,-0.408905 0.548948,-0.625824 0.202654,-0.258414 0.404146,-0.517813 0.614838,-0.769787 0.22727,-0.246767 0.44689,-0.500123 0.671347,-0.74934 0.241191,-0.243749 0.501721,-0.467074 0.751353,-0.702078 0.268156,-0.225675 0.534957,-0.452824 0.823672,-0.652386 0.250339,-0.181724 0.508131,-0.349834 0.765917,-0.520585 0.249352,-0.168655 0.492993,-0.345705 0.745748,-0.509371 0.266332,-0.187521 0.520792,-0.39116 0.792321,-0.571054 0.251616,-0.185643 0.510223,-0.361573 0.756965,-0.5537 0.272497,-0.207217 0.546862,-0.411937 0.819874,-0.618471 0.27502,-0.201376 0.554932,-0.395752 0.831237,-0.595334 0.301992,-0.21327 0.59885,-0.432939 0.911509,-0.6308 0.279991,-0.1821 0.564494,-0.356997 0.845867,-0.536932 0.265067,-0.155062 0.504552,-0.349982 0.769914,-0.504618 0.05228,-0.01469 0.269141,-0.139909 0.289711,-0.09041 0.01402,0.03375 -0.0132,0.07479 0.0018,0.109638 0.136331,-0.227156 3.348807,1.70086 3.212476,1.928017 z"
       inkscape:connector-curvature="0" />
    <path
       style="fill:#000000;fill-opacity:1;stroke:none"
       id="path3815"
       d="m 46.750841,32.276359 c -0.07751,0.149977 -0.183006,0.271913 -0.272374,0.408908 -0.139815,0.181792 -0.288275,0.357367 -0.441487,0.528017 -0.184804,0.214435 -0.397412,0.401148 -0.599822,0.597972 -0.204877,0.194977 -0.391518,0.40819 -0.587028,0.612483 -0.205819,0.208513 -0.419921,0.408032 -0.625588,0.61674 -0.225682,0.238865 -0.471687,0.457248 -0.71374,0.679147 -0.223725,0.212568 -0.469681,0.398991 -0.702439,0.601034 -0.226812,0.202619 -0.451702,0.407313 -0.679744,0.608562 -0.215189,0.180857 -0.423419,0.368005 -0.62112,0.567833 -0.237884,0.230932 -0.4863,0.450486 -0.722441,0.683194 -0.248239,0.227895 -0.507295,0.443621 -0.762559,0.663537 -0.2809,0.254949 -0.582608,0.485507 -0.886656,0.711845 -0.287407,0.223541 -0.592022,0.422077 -0.899724,0.616054 -0.240252,0.153007 -0.475448,0.313244 -0.719905,0.459534 -0.146234,0.08075 -0.271995,0.184964 -0.406309,0.280451 -0.09595,0.07565 -0.167057,0.175062 -0.232654,0.276781 -0.06107,0.08279 -0.09337,0.178415 -0.130294,0.273403 -0.02748,0.108239 -0.03705,0.22084 -0.04432,0.332245 -0.01371,0.160202 -0.01449,0.319339 -0.0029,0.479312 0.02091,0.195314 0.01561,0.394018 0.05163,0.587489 0.03918,0.23948 0.07207,0.479909 0.102548,0.72063 0.04908,0.321505 0.06503,0.643672 0.05209,0.96831 -0.0251,0.233387 -0.04549,0.466988 -0.05971,0.701277 0.0203,0.157432 0.03485,0.316171 0.05035,0.474562 0.01813,0.238702 0.04579,0.476221 0.07382,0.713892 0.03194,0.268856 0.05806,0.53834 0.08195,0.808014 0.02331,0.26643 0.0416,0.533255 0.05837,0.800165 0.01618,0.261028 0.02882,0.522254 0.0404,0.78352 0.01124,0.257054 0.02,0.514206 0.02803,0.771377 0.0047,0.261975 0.02788,0.522891 0.05313,0.783482 0.0136,0.3069 0.04011,0.612692 0.07041,0.918307 0.03226,0.296664 0.04811,0.595105 0.0924,0.890336 0.04018,0.287929 0.09524,0.573397 0.143769,0.85998 0.05102,0.31846 0.112372,0.63422 0.142649,0.955515 0.01649,0.213759 0.01267,0.4278 0.007,0.641805 -0.0071,0.281229 -3.984297,0.180574 -3.97718,-0.100655 l 0,0 c 0.0023,-0.04442 8.65e-4,-0.08729 -0.01189,-0.130583 -0.05054,-0.25258 -0.09497,-0.506325 -0.143093,-0.759367 -0.06279,-0.320329 -0.127953,-0.640251 -0.178538,-0.962821 -0.05322,-0.356102 -0.09466,-0.713801 -0.134804,-1.071591 -0.03261,-0.354826 -0.04923,-0.710484 -0.03451,-1.066852 -0.0038,-0.283824 0.0039,-0.567451 -0.0024,-0.851173 -0.0079,-0.242186 -0.01648,-0.484352 -0.02757,-0.726416 -0.01115,-0.240075 -0.02331,-0.480111 -0.03897,-0.71994 -0.01572,-0.237319 -0.03286,-0.474557 -0.05487,-0.711387 -0.02248,-0.238678 -0.04737,-0.477124 -0.07699,-0.715034 -0.03306,-0.27386 -0.06192,-0.548109 -0.08349,-0.823141 -0.02557,-0.328585 -0.03466,-0.658115 -0.0074,-0.987123 0.0141,-0.188521 0.03122,-0.377112 0.04047,-0.565802 -0.01316,-0.152887 -0.02739,-0.30564 -0.04786,-0.457785 -0.03048,-0.238221 -0.06605,-0.475707 -0.09858,-0.713648 -0.03072,-0.274381 -0.04827,-0.549675 -0.06391,-0.8253 -0.01478,-0.301182 -0.01346,-0.602092 0.01161,-0.902799 0.02472,-0.338332 0.06676,-0.67525 0.144026,-1.006074 0.09224,-0.344333 0.208503,-0.683917 0.369951,-1.002507 0.166886,-0.318905 0.350242,-0.629286 0.570468,-0.914849 0.243999,-0.314661 0.508642,-0.618167 0.823255,-0.864571 0.274398,-0.224266 0.567354,-0.420629 0.862712,-0.616161 0.23969,-0.157058 0.487201,-0.301812 0.724848,-0.461219 0.236962,-0.17667 0.472919,-0.354563 0.707712,-0.534077 0.253337,-0.220776 0.506663,-0.442077 0.772179,-0.648224 0.236217,-0.164818 0.429394,-0.384205 0.654249,-0.563971 0.248052,-0.205495 0.445494,-0.467725 0.699932,-0.667269 0.22704,-0.196266 0.454785,-0.391577 0.676297,-0.594137 0.21776,-0.194016 0.433452,-0.389771 0.661873,-0.57126 0.204153,-0.18303 0.406674,-0.368857 0.622741,-0.53782 0.202083,-0.199497 0.397427,-0.405933 0.608413,-0.596064 0.212694,-0.209129 0.418265,-0.425101 0.617277,-0.64736 0.195239,-0.195685 0.393677,-0.384692 0.611058,-0.554395 0.15296,-0.137375 0.296738,-0.292092 0.475499,-0.392513 0.01591,-0.0159 0.280971,-0.264132 0.288577,-0.254017 0.04835,0.06431 -0.18127,0.149628 -0.111341,0.214175 0.136331,-0.227156 3.348808,1.70086 3.212476,1.928017 z"
       inkscape:connector-curvature="0" />
    <path
       style="fill:#000000;fill-opacity:1;stroke:none"
       id="path3817"
       d="m 34.784062,40.597392 c 0.08154,0.163847 0.09764,0.354523 0.120928,0.533808 0.02464,0.376468 0.02641,0.755293 0.02008,1.13259 -0.01567,0.476787 -0.05443,0.951978 -0.09947,1.426715 -0.0577,0.468984 -0.11478,0.937817 -0.186496,1.404891 -0.06428,0.404159 -0.124532,0.808923 -0.180473,1.214317 -0.04521,0.318445 -0.08552,0.637159 -0.102045,0.958433 -0.01323,0.319234 -0.01995,0.638694 -0.02684,0.958114 -0.0065,0.305203 -0.01167,0.61043 -0.0165,0.915663 -0.0045,0.288007 -0.0081,0.576027 -0.0115,0.86405 -0.0032,0.275815 -0.0057,0.551636 -0.0081,0.827458 -0.0022,0.267288 -0.004,0.534579 -0.0056,0.801871 -0.0016,0.261326 -0.0028,0.522653 -0.004,0.783981 0.0092,0.197396 0.0051,0.396197 0.0325,0.592233 0.03561,0.205135 0.07846,0.408759 0.118647,0.613048 0.03391,0.128046 0.05757,0.258071 0.08136,0.388265 0.04506,0.277983 -3.886212,0.915224 -3.931271,0.637241 l 0,0 c -0.02689,-0.123248 -0.05538,-0.246149 -0.0797,-0.369947 -0.0612,-0.302749 -0.120147,-0.606306 -0.156042,-0.9133 -0.03013,-0.316512 -0.04541,-0.634076 -0.0507,-0.951993 -4.43e-4,-0.261923 -9.26e-4,-0.523845 -0.0015,-0.785768 -6.35e-4,-0.268104 -0.0013,-0.536209 -0.0022,-0.804312 -9.1e-4,-0.276914 -0.0019,-0.553827 -0.0031,-0.83074 -0.0013,-0.289467 -0.0027,-0.578935 -0.0045,-0.8684 -0.0019,-0.307599 -0.0039,-0.615197 -0.0063,-0.922792 -0.0026,-0.343882 -0.0061,-0.687772 -0.0048,-1.031667 0.005,-0.416816 0.02882,-0.832392 0.07011,-1.247259 0.03782,-0.431821 0.07792,-0.863463 0.125548,-1.294328 0.05169,-0.455926 0.114653,-0.910406 0.171524,-1.36571 0.06201,-0.39861 0.105498,-0.800102 0.155837,-1.20026 0.03049,-0.311847 0.08612,-0.619993 0.109963,-0.932394 0.02329,-0.179285 0.03939,-0.369961 0.120928,-0.533808 0,-0.265426 3.753691,-0.265426 3.753691,0 z"
       inkscape:connector-curvature="0" />
    <path
       style="fill:#000000;fill-opacity:1;stroke:none"
       id="path3819"
       d="m 32.182594,43.439407 c 0.04223,0.109711 0.01528,-0.09741 0.03999,-0.100939 0.01238,-0.0018 0.06306,0.226887 0.06938,0.255513 0.0365,0.220068 0.07853,0.438307 0.123709,0.656578 0.06567,0.312843 0.103883,0.629933 0.135701,0.94767 0.0296,0.308162 0.05234,0.616921 0.07351,0.925758 0.01974,0.291368 0.0356,0.582975 0.05019,0.87464 0.0037,0.248423 0.05108,0.492839 0.08723,0.737854 0.06519,0.371717 0.101655,0.747276 0.134676,1.122934 0.02771,0.366193 0.0496,0.732869 0.07238,1.099425 0.02862,0.319518 0.05117,0.639704 0.08551,0.958674 0.03634,0.31795 0.07019,0.636162 0.101173,0.954676 0.03153,0.295575 0.04671,0.592673 0.07732,0.888289 0.0046,0.04346 0.0092,0.08692 0.01385,0.130382 0.0267,0.282527 -3.968841,0.660089 -3.995538,0.377562 l 0,0 c -0.0061,-0.05136 -0.01213,-0.102725 -0.01819,-0.154088 -0.03097,-0.290443 -0.05746,-0.581381 -0.09384,-0.871233 -0.03828,-0.307881 -0.08096,-0.615157 -0.12399,-0.922406 -0.04591,-0.361488 -0.09045,-0.723206 -0.130357,-1.085404 -0.03788,-0.381231 -0.07901,-0.762601 -0.08981,-1.145825 -0.01402,-0.322191 -0.02885,-0.644333 -0.03874,-0.966669 -0.02437,-0.311407 -0.06236,-0.621576 -0.07922,-0.933544 -0.01718,-0.268129 -0.03584,-0.536173 -0.05911,-0.803853 -0.0244,-0.277891 -0.05104,-0.555583 -0.08235,-0.832791 -0.03,-0.270527 -0.05709,-0.541201 -0.07927,-0.812491 -0.0235,-0.240375 -0.05142,-0.48088 -0.04034,-0.722833 0.0043,-0.191258 -0.02303,-0.394066 0.01949,-0.577879 0,-0.264927 3.746632,-0.264927 3.746632,0 z"
       inkscape:connector-curvature="0" />
    <path
       style="fill:#000000;fill-opacity:1;stroke:none"
       id="path3823"
       d="m 19.747381,13.883142 c 0.08345,-0.02276 0.171924,-0.02308 0.257911,-0.02754 0.137823,-0.0065 0.275759,-0.01023 0.413686,-0.01371 0.17076,-0.0041 0.341549,-0.0069 0.512339,-0.0095 0.19373,-0.0028 0.387471,-0.0048 0.581212,-0.0066 0.209814,-0.0019 0.419632,-0.0034 0.62945,-0.0046 0.221079,-0.0013 0.44216,-0.0023 0.663241,-0.0033 0.213864,-0.0062 0.427831,0.0043 0.641516,0.0019 0.234668,-0.0089 0.46911,-0.02288 0.703657,-0.03447 0.151427,-0.0071 0.08062,-0.0058 0.212389,-0.0055 0.178093,-0.05636 0.975209,2.462254 0.797116,2.518619 l 0,0 c -0.18478,0.02001 -0.09727,0.01424 -0.262377,0.01963 -0.234802,0.0082 -0.469622,0.01684 -0.704145,0.03118 -0.244507,0.01636 -0.488224,0.02665 -0.733476,0.01844 -0.221638,-9.16e-4 -0.443276,-0.0019 -0.664913,-0.0033 -0.210614,-0.0013 -0.421227,-0.0027 -0.631837,-0.0046 -0.194877,-0.0018 -0.389753,-0.0038 -0.584619,-0.0066 -0.172412,-0.0026 -0.344823,-0.0053 -0.517205,-0.0095 -0.140273,-0.0035 -0.280553,-0.0072 -0.420725,-0.01371 -0.09079,-0.0046 -0.183457,-0.0057 -0.272054,-0.02754 -0.171069,0.04392 -0.792235,-2.37536 -0.621166,-2.419283 z"
       inkscape:connector-curvature="0" />
    <path
       style="fill:#000000;fill-opacity:1;stroke:none"
       id="path3825"
       d="m 44.118515,13.140874 c 0.08345,-0.02276 0.171925,-0.02308 0.257911,-0.02754 0.137823,-0.0065 0.275759,-0.01023 0.413686,-0.01371 0.17076,-0.0042 0.341549,-0.0069 0.512339,-0.0095 0.461956,-0.01399 0.923431,-0.02223 1.376624,0.07017 0.25658,0.04079 0.509067,0.09892 0.756989,0.176358 0.246462,0.08744 0.496893,0.162159 0.741905,0.253731 0.04596,0.01888 0.09192,0.03776 0.137877,0.05663 0.158737,0.09885 -1.239212,2.343734 -1.397949,2.244884 l 0,0 c -0.02949,-0.0099 -0.05899,-0.01971 -0.08848,-0.02956 -0.194459,-0.06273 -0.387357,-0.133556 -0.586248,-0.180538 -0.167626,-0.02947 -0.335139,-0.05939 -0.504299,-0.07863 -0.722458,0.04119 0.928528,0.0026 0.210793,0.0077 -0.172412,-0.0025 -0.344823,-0.0053 -0.517205,-0.0095 -0.140273,-0.0035 -0.280552,-0.0072 -0.420725,-0.01371 -0.09079,-0.0046 -0.183457,-0.0057 -0.272054,-0.02754 -0.171069,0.04392 -0.792235,-2.37536 -0.621166,-2.419283 z"
       inkscape:connector-curvature="0" />
    <path
       style="fill:#000000;fill-opacity:1;stroke:none"
       id="path3827"
       d="m 14.43029,16.819907 c 0.01027,0.02256 0.0097,0.05468 0.0308,0.06767 0.01411,0.0087 -0.0181,-0.04833 -0.0016,-0.04968 0.0093,-7.57e-4 0.06931,0.140048 0.108248,0.192465 0.06686,0.154783 0.156909,0.297261 0.233374,0.447028 0.08215,0.180385 0.181902,0.352137 0.280199,0.524052 0.111306,0.177533 0.213712,0.360254 0.333928,0.532079 0.139966,0.188282 0.273769,0.380757 0.41619,0.56727 0.109426,0.150711 0.213973,0.304721 0.320689,0.457333 0.09174,0.164387 -2.233046,1.461746 -2.324783,1.297359 l 0,0 c -0.09507,-0.138474 -0.192142,-0.275573 -0.290976,-0.411388 -0.158008,-0.225155 -0.316313,-0.45032 -0.465325,-0.681551 -0.141854,-0.229122 -0.274913,-0.463822 -0.399645,-0.702707 -0.10255,-0.201369 -0.203378,-0.403431 -0.293271,-0.61087 -0.07213,-0.155965 -0.134456,-0.315895 -0.202783,-0.473515 -0.04958,-0.123548 -0.09993,-0.251468 -0.129126,-0.381852 -0.0012,-0.0052 0.0074,0.0078 0.01109,0.0117 -0.05554,-0.167795 2.317437,-0.953186 2.372972,-0.785392 z"
       inkscape:connector-curvature="0" />
    <path
       style="fill:#000000;fill-opacity:1;stroke:none"
       id="path3829"
       d="m 15.6788,16.93772 c 0.0364,-0.04794 0.25575,0.334715 0.273423,0.366418 0.100515,0.163707 0.178809,0.34035 0.257657,0.515248 0.08246,0.198454 0.162781,0.397429 0.232622,0.600728 0.07761,0.230056 0.136172,0.465754 0.189252,0.702468 0.04271,0.21896 0.08863,0.437167 0.132814,0.655828 0.0319,0.19548 0.09346,0.384033 0.149116,0.573576 0.06386,0.186692 0.139008,0.369879 0.222885,0.54849 0.08327,0.176674 0.185168,0.342575 0.298335,0.501341 0.134223,0.185968 0.278431,0.36413 0.428438,0.537484 0.147417,0.163235 0.299424,0.321623 0.467589,0.463563 0.147733,0.101382 0.310563,0.17744 0.471866,0.254543 0.187865,0.08908 0.383385,0.159904 0.580659,0.224814 0.16952,0.05516 0.350459,0.05703 0.526904,0.07887 0.223345,0.02815 0.447302,0.05092 0.671437,0.07169 0.232326,0.02122 0.465048,0.03763 0.697842,0.05269 0.236924,0.0151 0.474045,0.02676 0.711201,0.03747 0.240094,0.01068 0.480285,0.01894 0.720494,0.02651 0.242304,0.0075 0.484655,0.01336 0.727015,0.0187 0.243845,0.0053 0.487713,0.0094 0.731586,0.01317 0.24492,0.0037 0.489852,0.0066 0.734786,0.0093 0.245673,0.0026 0.49135,0.0046 0.737029,0.0065 0.246198,0.0018 0.492398,0.0033 0.738599,0.0046 0.25527,-0.0011 0.510534,-0.0017 0.76582,-7.32e-4 0.256503,0.0012 0.513006,0.0023 0.76951,0.0033 0.253851,9.75e-4 0.507702,0.0017 0.761554,0.0024 0.251923,6.87e-4 0.503847,0.0012 0.755771,0.0017 0.250574,4.81e-4 0.501149,8.55e-4 0.751723,0.0012 0.249629,3.37e-4 0.499258,5.99e-4 0.748888,8.39e-4 0.259522,-0.005 0.519117,-0.0036 0.778673,-0.0032 0.257646,4.99e-4 0.515293,0.001 0.772939,0.0015 0.254622,4.39e-4 0.509244,7.84e-4 0.763866,0.0011 0.256868,0.0013 0.513652,0.0013 0.770453,-0.0049 0.350879,-0.03252 0.700781,-0.0071 1.051501,0.0083 0.386068,0.0076 0.771386,0.03327 1.15673,0.05651 0.351444,0.02148 0.703046,0.04019 1.054721,0.05744 0.319885,0.01557 0.639893,0.02842 0.959934,0.04029 0.297829,0.01093 0.595728,0.0198 0.893644,0.02797 0.282518,0.0077 0.565075,0.0138 0.84764,0.01945 0.278578,0.006 0.557207,0.0059 0.835826,0.0095 0.274719,0.0038 0.549442,0.0073 0.824169,0.01038 0.266638,0.003 0.533283,0.0054 0.799928,0.0075 0.268769,0.0059 0.537475,-4.74e-4 0.806225,-0.002 0.301192,-0.0046 0.600599,-6.3e-4 0.899904,0.03418 0.348411,0.02503 0.683545,0.121574 1.013219,0.231145 0.322121,0.11223 0.626616,0.268659 0.925704,0.431249 0.269782,0.155433 0.542113,0.306373 0.79953,0.481835 0.256908,0.1775 0.514993,0.351386 0.755462,0.550889 0.131122,0.135471 -1.784727,1.989815 -1.915849,1.854344 l 0,0 c -0.203932,-0.137409 -0.405555,-0.278489 -0.613677,-0.409472 -0.212981,-0.120793 -0.422031,-0.248998 -0.641038,-0.358797 -0.173687,-0.08249 -0.350368,-0.157056 -0.540966,-0.190595 -0.19212,-0.03469 -0.38671,-0.03807 -0.581502,-0.04474 -0.257962,0.0081 -0.515915,0.0086 -0.774009,0.0054 -0.26931,-0.0037 -0.538532,-0.01254 -0.807924,-0.01 -0.268807,-0.0011 -0.537615,-0.0023 -0.806421,-0.0038 -0.277631,-0.0016 -0.555262,-0.0033 -0.832886,-0.0059 -0.282258,-0.003 -0.564391,-0.01019 -0.846635,-0.01371 -0.287817,-0.004 -0.57563,-0.0083 -0.863427,-0.01365 -0.304775,-0.0057 -0.609543,-0.01184 -0.914281,-0.01928 -0.328765,-0.0081 -0.657516,-0.0168 -0.986218,-0.02716 -0.362259,-0.01151 -0.7245,-0.02374 -1.086636,-0.03869 -0.389795,-0.0166 -0.779845,-0.03303 -1.168092,-0.07323 -0.301918,-0.02258 -0.604961,-0.0166 -0.90718,-0.03617 -0.256002,-0.0063 -0.511991,-0.0063 -0.768064,-0.0052 -0.254851,1.92e-4 -0.509701,4.01e-4 -0.764552,6.66e-4 -0.257951,2.7e-4 -0.515902,5.83e-4 -0.773853,8.35e-4 -0.259119,1.71e-4 -0.518281,0.0013 -0.777359,-0.0041 -0.249899,-1.21e-4 -0.499799,-2.53e-4 -0.749698,-4.23e-4 -0.250957,-1.73e-4 -0.501914,-3.62e-4 -0.752871,-6.04e-4 -0.252466,-2.47e-4 -0.504931,-5.16e-4 -0.757397,-8.6e-4 -0.254614,-3.53e-4 -0.509228,-7.36e-4 -0.763842,-0.0012 -0.257542,-5.11e-4 -0.515085,-0.001 -0.772626,-0.002 -0.256093,-0.0011 -0.512139,-0.004 -0.768185,-0.0082 -0.248093,-0.0018 -0.496185,-0.0037 -0.744272,-0.0061 -0.248381,-0.0025 -0.49676,-0.0052 -0.74513,-0.0088 -0.248794,-0.0036 -0.497585,-0.0075 -0.746355,-0.01252 -0.249387,-0.0051 -0.498767,-0.01071 -0.748105,-0.01792 -0.250241,-0.0073 -0.500465,-0.01535 -0.750603,-0.02567 -0.251471,-0.01053 -0.502907,-0.02202 -0.754167,-0.03684 -0.253246,-0.01515 -0.506422,-0.03168 -0.759237,-0.05297 -0.255868,-0.02186 -0.511592,-0.04572 -0.766568,-0.07647 -0.262298,-0.03214 -0.524406,-0.06689 -0.784367,-0.114805 -0.313748,-0.0609 -0.621933,-0.142118 -0.916575,-0.268486 -0.28854,-0.11687 -0.573345,-0.243803 -0.843501,-0.399318 -0.30834,-0.18102 -0.604832,-0.382174 -0.860735,-0.634024 -0.232452,-0.223409 -0.452384,-0.459056 -0.656012,-0.709232 -0.191723,-0.240711 -0.375234,-0.487856 -0.540897,-0.747432 -0.173594,-0.275501 -0.332963,-0.559274 -0.453587,-0.862578 -0.110165,-0.270901 -0.215483,-0.544379 -0.291941,-0.827043 -0.06929,-0.249161 -0.132609,-0.500094 -0.175456,-0.755352 -0.03899,-0.202079 -0.07511,-0.404674 -0.115006,-0.606563 -0.03435,-0.156688 -0.07192,-0.312863 -0.123464,-0.464938 -0.04974,-0.144956 -0.102503,-0.289051 -0.160104,-0.431064 -0.04642,-0.109096 -0.09165,-0.218517 -0.149649,-0.322186 -0.03372,-0.05203 -0.0634,-0.102059 -0.08562,-0.159705 -0.09089,-0.151438 2.050763,-1.436782 2.141651,-1.285344 z"
       inkscape:connector-curvature="0" />
    <path
       style="fill:#000000;fill-opacity:1;stroke:none"
       id="path3831"
       d="m 48.480043,27.690138 c -0.09231,0.07295 -0.215266,0.112668 -0.320901,0.166391 -0.244038,0.120783 -0.503702,0.206499 -0.764544,0.282684 -0.25403,0.0649 -0.504162,0.143841 -0.75693,0.213497 -0.284354,0.07665 -0.571919,0.140678 -0.85937,0.204472 -0.318204,0.07274 -0.641536,0.115714 -0.965478,0.152531 -0.307815,0.03381 -0.616347,0.06046 -0.924996,0.0853 -0.290808,0.02316 -0.581935,0.04195 -0.87314,0.05929 -0.278295,0.01639 -0.556764,0.02956 -0.835274,0.04167 -0.284839,0.0092 -0.569202,0.02816 -0.853734,0.04374 -0.354464,0.01974 -0.70871,0.04232 -1.063658,0.05115 -0.419722,0.0086 -0.839286,0.02344 -1.258686,0.04177 -0.486413,0.0069 -0.971589,0.03265 -1.45695,0.06403 -0.548056,0.0288 -1.09408,0.08458 -1.64071,0.131992 -0.59001,0.04246 -1.18034,0.08193 -1.771009,0.114125 -0.625332,0.03306 -1.2497,0.07462 -1.875442,0.10098 -0.656927,0.02967 -1.314438,0.04057 -1.971884,0.05105 -0.614241,0.0099 -1.228475,0.01799 -1.8428,0.01772 -0.769723,0.004 -1.539011,-0.007 -2.308321,-0.02999 -0.469131,-0.02502 -0.936587,-0.07307 -1.403325,-0.125335 -0.412273,-0.05731 -0.821678,-0.133026 -1.230616,-0.2101 -0.38451,-0.07717 -0.760995,-0.186044 -1.140385,-0.283736 -0.375461,-0.09461 -0.744473,-0.215436 -1.108177,-0.347896 -0.351964,-0.122718 -0.693596,-0.272441 -1.038261,-0.413804 -0.323274,-0.135307 -0.642938,-0.278787 -0.959973,-0.428098 -0.293733,-0.136913 -0.586331,-0.276436 -0.878349,-0.417013 -0.286863,-0.12123 -0.563444,-0.263779 -0.842716,-0.401053 -0.275082,-0.149898 -0.560158,-0.280515 -0.831226,-0.437567 -0.273064,-0.163079 -0.546468,-0.325373 -0.814166,-0.497183 -0.253507,-0.15652 -0.507696,-0.311673 -0.756841,-0.475112 -0.274804,-0.191893 -0.537729,-0.39866 -0.794312,-0.613982 -0.250167,-0.216112 -0.47939,-0.453857 -0.706986,-0.693068 -0.198589,-0.230032 -0.41047,-0.448165 -0.607785,-0.679228 -0.185618,-0.239595 -0.387974,-0.465484 -0.576181,-0.702894 -0.201525,-0.247597 -0.386108,-0.508919 -0.559436,-0.776881 -0.15669,-0.233132 -0.308642,-0.469213 -0.470928,-0.698546 -0.161475,-0.24606 -0.328121,-0.488773 -0.487239,-0.73636 -0.175276,-0.275666 -0.322144,-0.567506 -0.457977,-0.86415 -0.126721,-0.280168 -0.229539,-0.570023 -0.323856,-0.862411 -0.01431,-0.04703 -0.02861,-0.09405 -0.04292,-0.141074 -0.04737,-0.181595 2.520773,-0.851516 2.568143,-0.66992 l 0,0 c 0.01119,0.03432 0.02238,0.06863 0.03358,0.10295 0.07055,0.20315 0.147399,0.404345 0.243768,0.596894 0.102379,0.201787 0.214898,0.398107 0.343734,0.584369 0.155614,0.232038 0.306463,0.467263 0.465872,0.696757 0.157926,0.23744 0.312965,0.476782 0.473348,0.712586 0.14819,0.206167 0.301488,0.408337 0.464784,0.602864 0.176043,0.210271 0.343658,0.427716 0.526649,0.632046 0.179789,0.197529 0.352023,0.402212 0.54037,0.591748 0.171251,0.172664 0.35043,0.337941 0.543095,0.486634 0.19843,0.155621 0.402564,0.305419 0.617734,0.437176 0.244325,0.154295 0.491723,0.303657 0.736053,0.457956 0.226697,0.138559 0.454959,0.275549 0.691522,0.396695 0.259253,0.122488 0.51131,0.259231 0.770317,0.382231 0.270168,0.130866 0.546522,0.247851 0.818407,0.375064 0.285978,0.130303 0.569158,0.266692 0.858275,0.390067 0.292686,0.125929 0.586432,0.249275 0.884267,0.362666 0.314434,0.122871 0.630963,0.240146 0.952056,0.344616 0.312448,0.10079 0.626681,0.192801 0.947064,0.265465 0.316022,0.08268 0.63674,0.14978 0.96052,0.193814 0.354386,0.05172 0.710272,0.09791 1.068259,0.114815 0.413983,0.0242 0.828931,0.03876 1.24362,0.02654 0.176306,-0.0022 0.314702,-0.0038 0.491314,-0.0069 0.08478,-0.0015 0.339038,-9.77e-4 0.254337,-0.005 -1.046796,-0.0496 -0.107903,0.02782 0.08443,-0.018 0.606372,-0.02194 1.212941,-0.0365 1.819442,-0.05437 0.649231,-0.01956 1.298426,-0.04059 1.947871,-0.05186 0.614808,-0.01375 1.229867,-0.01511 1.84405,-0.04591 0.574972,-0.02728 1.149938,-0.0535 1.724164,-0.09441 0.568851,-0.03234 1.1368,-0.07593 1.70523,-0.113454 0.520329,-0.01691 1.040541,-0.05512 1.561167,-0.04494 0.419623,0.01114 0.839397,0.01796 1.259181,0.01451 0.351092,-0.0014 0.701981,0.01036 1.053046,0.01224 0.275354,7.71e-4 0.550832,0.0029 0.825917,-0.01181 0.266423,-0.01086 0.532811,-0.02268 0.799041,-0.03762 0.275199,-0.01563 0.550327,-0.03264 0.825155,-0.05391 0.287549,-0.0225 0.574936,-0.04707 0.861887,-0.07631 0.279192,-0.02808 0.558521,-0.05377 0.83805,-0.07814 0.2357,-0.02641 0.468629,-0.06876 0.699432,-0.123706 0.256702,-0.06035 0.510841,-0.129927 0.763839,-0.204274 0.193639,-0.04055 0.387031,-0.08072 0.579365,-0.127017 0.150746,-0.022 0.286166,-0.10467 0.439476,-0.121153 0.153515,-0.08822 1.401167,2.082795 1.247653,2.171018 z"
       inkscape:connector-curvature="0" />
    <path
       style="fill:#000000;fill-opacity:1;stroke:none"
       id="path3833"
       d="m 14.194264,19.288235 c 0.02014,-0.0046 8.33e-4,-0.04779 0.01813,-0.04869 0.04608,-0.0024 0.231716,0.174022 0.273706,0.208207 0.176062,0.153439 0.349642,0.309473 0.526956,0.461464 0.220041,0.186023 0.416361,0.397497 0.617969,0.602787 0.09722,0.108657 0.196118,0.21579 0.29512,0.322821 0.10985,0.153046 -2.054551,1.706568 -2.164402,1.553522 l 0,0 c -0.08154,-0.0901 -0.162185,-0.181199 -0.249246,-0.266089 -0.164156,-0.169017 -0.33605,-0.329448 -0.513521,-0.484446 -0.190203,-0.174487 -0.376896,-0.352828 -0.558701,-0.536073 -0.150837,-0.159079 -0.296524,-0.326151 -0.387661,-0.528154 -0.09089,-0.151437 2.050763,-1.436782 2.141651,-1.285344 z"
       inkscape:connector-curvature="0" />
    <path
       style="fill:#000000;fill-opacity:1;stroke:none"
       id="path3835"
       d="m 20.572269,24.740926 c 0.1373,-0.01127 0.284253,0.0673 0.414823,0.117109 0.283161,0.109009 0.567986,0.212967 0.856908,0.305669 0.333506,0.102122 0.668669,0.199479 1.007972,0.280537 0.377942,0.07979 0.763931,0.116472 1.146901,0.165135 0.440435,0.0576 0.882785,0.09812 1.324446,0.144661 0.415975,0.04568 0.832245,0.08851 1.248837,0.128158 0.365464,0.03462 0.731387,0.06403 1.097461,0.09134 0.329178,0.02437 0.658638,0.04459 0.98818,0.06328 0.343621,0.01824 0.687705,0.01 1.03154,0.01578 0.383766,0.01732 0.767671,0.01562 1.15167,0.01137 0.06623,-0.0035 0.264928,-0.0071 0.198694,-0.01056 -0.164277,-0.0086 -0.329297,0.0055 -0.493475,-0.0048 -0.07459,-0.0047 0.149272,-0.0076 0.22387,-0.01205 0.257087,-0.01541 0.514136,-0.03181 0.771209,-0.04753 0.627448,-0.03192 1.254443,-0.07316 1.88204,-0.102076 0.7814,-0.0349 1.563178,-0.06542 2.345399,-0.06946 0.753398,0.0034 1.506524,0.0043 2.259615,-0.01903 0.674226,-0.02336 1.348744,-0.03604 2.023079,-0.0564 0.546675,-0.02182 1.092805,-0.05948 1.638051,-0.10437 0.472599,-0.04201 0.945106,-0.08499 1.417877,-0.125034 0.40907,-0.03458 0.818472,-0.06499 1.228003,-0.09352 0.185972,-0.0129 0.372026,-0.02456 0.558082,-0.03616 0.183535,-0.05891 1.016713,2.53666 0.833178,2.595574 l 0,0 c -0.177995,0.01414 -0.355986,0.02835 -0.533831,0.0443 -0.391518,0.0353 -0.782808,0.0732 -1.173439,0.117358 -0.459096,0.05215 -0.917777,0.107938 -1.375585,0.170492 -0.570404,0.07749 -1.141726,0.146789 -1.713652,0.212281 -0.686087,0.06722 -1.373996,0.120173 -2.063016,0.144864 -0.771334,0.0368 -1.542108,0.08817 -2.314695,0.09079 -0.78269,0.01289 -1.565481,-2.26e-4 -2.348183,-0.0083 -0.627069,-0.0066 -1.254039,-0.02276 -1.881206,-0.01589 -0.737688,7.32e-4 -1.476393,0.01972 -2.213512,-0.0021 -0.389549,-0.01929 -0.779034,-0.03846 -1.169064,-0.04488 -0.35541,-0.01559 -0.709892,-0.0473 -1.065255,-0.06452 -0.342651,-0.01536 -0.685253,-0.03186 -1.027698,-0.05134 -0.381928,-0.02186 -0.763774,-0.04521 -1.145371,-0.0723 -0.4362,-0.03119 -0.87235,-0.0637 -1.307689,-0.105446 -0.477143,-0.04897 -0.953026,-0.110621 -1.426307,-0.188828 -0.455817,-0.07949 -0.907087,-0.178391 -1.350765,-0.310885 -0.411282,-0.115948 -0.823228,-0.23281 -1.218803,-0.396306 -0.373801,-0.157445 -0.741217,-0.330598 -1.082055,-0.552247 -0.188087,-0.130539 -0.383033,-0.264679 -0.521803,-0.449945 -0.124077,-0.125693 1.653492,-1.880408 1.777569,-1.754715 z"
       inkscape:connector-curvature="0" />
    <path
       style="fill:#000000;fill-opacity:1;stroke:none"
       id="path3837"
       d="m 49.033515,27.065312 c -0.247939,0.07984 -0.510518,0.104527 -0.767796,0.136798 -0.689935,0.07451 -1.384118,0.105356 -2.077234,0.134188 -0.961109,0.0258 -1.922206,0.05306 -2.883449,0.07339 -1.079955,0.0095 -2.159963,0.01025 -3.239919,0.02013 -1.062357,0.0046 -2.124643,-0.01575 -3.186868,-0.02999 -0.931395,-0.0098 -1.862681,-0.02738 -2.793804,-0.05167 -0.749327,-0.02056 -1.498641,-0.04158 -2.247985,-0.06154 -0.600911,-0.01471 -1.201751,-0.03336 -1.802786,-0.04215 -0.552544,-0.0053 -0.159173,2.68e-4 0.18011,-0.0072 0.08175,-0.0018 -0.163548,-0.0014 -0.245305,-6.9e-5 -0.262431,0.0044 -0.525073,0.01898 -0.787297,0.02974 -0.542327,0.02091 -1.084275,0.0493 -1.626698,0.06765 -0.546054,0.01649 -1.092195,0.02887 -1.638196,0.0471 -0.540496,0.0157 -1.081251,0.01945 -1.621947,0.01966 -0.333782,-5.74e-4 -0.168035,-2e-4 -0.497241,-0.0011 -0.192239,0.05205 -0.9284,-2.666613 -0.736162,-2.718667 l 0,0 c 0.3243,-0.01112 0.161018,-0.0055 0.489847,-0.01678 0.534036,-0.0177 1.068184,-0.03267 1.60247,-0.04019 0.539035,-0.0059 1.077833,-0.02062 1.616609,-0.03828 0.534567,-0.01598 1.069359,-0.02523 1.603544,-0.05213 0.790926,-0.03552 1.581076,-0.08092 2.373437,-0.06737 0.608248,-0.0088 1.216304,-0.02747 1.824431,-0.04215 0.759877,-0.01996 1.519725,-0.04097 2.279586,-0.06154 0.93997,-0.0242 1.880099,-0.04184 2.820336,-0.05167 1.067358,-0.01421 2.134777,-0.03452 3.202267,-0.02999 1.07651,0.0099 2.153071,0.01066 3.229579,0.02013 0.948684,0.02029 1.897217,0.04756 2.845762,0.07339 0.670166,0.02849 1.341588,0.05845 2.008327,0.134188 0.233645,0.03132 0.475478,0.05297 0.697548,0.136799 0.171069,0.04392 -0.450097,2.463206 -0.621166,2.419283 z"
       inkscape:connector-curvature="0" />
    <path
       style="fill:#000000;fill-opacity:1;stroke:none"
       id="path3839"
       d="m 17.578729,24.855236 c -0.05847,-0.148076 0.264465,0.114023 0.295618,0.13603 0.169432,0.123065 0.352198,0.22523 0.52809,0.338385 0.20152,0.119919 0.406804,0.234056 0.614991,0.342084 0.201829,0.106351 0.417615,0.18104 0.626821,0.270573 0.237849,0.120396 0.494829,0.192106 0.741425,0.291283 0.284882,0.112633 0.569824,0.226943 0.844032,0.363866 0.257346,0.134736 0.517688,0.259299 0.768483,0.406543 0.273406,0.140391 0.518492,0.326708 0.773694,0.496262 0.264562,0.169736 0.505899,0.371432 0.755533,0.561565 0.232074,0.179098 0.460819,0.362383 0.697821,0.534985 0.217625,0.164613 0.450083,0.308561 0.681776,0.452302 0.239496,0.158988 0.492635,0.295258 0.747569,0.427392 0.273777,0.128917 0.545768,0.258455 0.83514,0.348283 0.354855,0.102174 0.70825,0.209342 1.063063,0.311667 0.36991,0.102112 0.739566,0.203562 1.115331,0.281854 0.379539,0.07348 0.761923,0.132031 1.144667,0.186035 0.334191,0.05336 0.673495,0.07604 1.011648,0.06403 -1.163429,0.0044 -0.02881,0.004 0.237234,-0.0092 0.314926,-0.0284 0.628938,-0.06686 0.942363,-0.108602 0.272232,-0.02892 0.542471,-0.07515 0.808889,-0.137837 0.291714,-0.0613 0.573996,-0.154432 0.857579,-0.244708 0.349455,-0.112469 0.692015,-0.244811 1.037909,-0.367581 0.386771,-0.128607 0.764838,-0.280482 1.147108,-0.421409 0.379385,-0.144289 0.758514,-0.288981 1.135704,-0.438923 0.340478,-0.13347 0.676167,-0.277789 1.00687,-0.433802 0.324465,-0.158048 0.657592,-0.296996 0.986521,-0.445222 0.05431,-0.02431 0.108621,-0.04861 0.162932,-0.07292 0.157713,-0.108794 1.696301,2.12161 1.538588,2.230404 l 0,0 c -0.04757,0.02115 -0.09513,0.0423 -0.142701,0.06345 -0.310127,0.144321 -0.620349,0.288285 -0.930081,0.433397 -0.361259,0.180771 -0.719971,0.367396 -1.093841,0.521489 -0.395967,0.176397 -0.794301,0.347671 -1.20015,0.500276 -0.404539,0.157045 -0.814391,0.300537 -1.222036,0.449055 -0.374255,0.122387 -0.749579,0.241481 -1.124987,0.360284 -0.319132,0.09429 -0.639809,0.181838 -0.959131,0.275163 -0.342628,0.09439 -0.685108,0.190106 -1.036167,0.249062 -0.336031,0.04958 -0.671585,0.09971 -1.008476,0.14311 -0.615618,0.09165 -1.232812,0.129369 -1.856638,0.09563 -0.445033,-0.02118 -0.888755,-0.06018 -1.328115,-0.136589 -0.435021,-0.07342 -0.869233,-0.152232 -1.29695,-0.261671 -0.425401,-0.107011 -0.851686,-0.213098 -1.26877,-0.3497 -0.412898,-0.135537 -0.829511,-0.263924 -1.225518,-0.44487 -0.350927,-0.169036 -0.699053,-0.345721 -1.036024,-0.541231 -0.283716,-0.169887 -0.566021,-0.341879 -0.840846,-0.525925 -0.272157,-0.179194 -0.538989,-0.365705 -0.797234,-0.564602 -0.242683,-0.185045 -0.481817,-0.374599 -0.722828,-0.561804 -0.207729,-0.162619 -0.416215,-0.324202 -0.638893,-0.466254 -0.200241,-0.135692 -0.405473,-0.262001 -0.617824,-0.378029 -0.205665,-0.102285 -0.415603,-0.199058 -0.630545,-0.279902 -0.256897,-0.100023 -0.5074,-0.216258 -0.765842,-0.312718 -0.262071,-0.103212 -0.517767,-0.220255 -0.775986,-0.332469 -0.281877,-0.119063 -0.557683,-0.252391 -0.822314,-0.406371 -0.255168,-0.149877 -0.508225,-0.304088 -0.751233,-0.473154 -0.217072,-0.152668 -0.424002,-0.318336 -0.625677,-0.490798 -0.133565,-0.119974 -0.261284,-0.247867 -0.364648,-0.3954 -0.108384,-0.139728 1.867671,-1.672514 1.976056,-1.532786 z"
       inkscape:connector-curvature="0" />
    <path
       style="fill:#000000;fill-opacity:1;stroke:none"
       id="path3841"
       d="m 39.627522,30.531508 c -0.245976,0.08635 -0.0432,0.0086 0.562221,0.02493 0.01476,3.97e-4 -0.02904,0.0054 -0.04351,0.0082 -0.0334,0.0067 -0.06666,0.0141 -0.100117,0.02049 -0.07093,0.01355 -0.142177,0.02544 -0.213221,0.03841 -0.393622,0.09432 -0.794616,0.149389 -1.19579,0.199349 -0.574271,0.08225 -1.151303,0.142548 -1.730679,0.171812 -0.588378,0.02173 -1.177172,0.02891 -1.765856,0.0373 -0.491528,0.0068 -0.983068,0.01274 -1.47461,0.0184 -0.437429,0.01259 -0.874976,0.01751 -1.312554,0.02111 -0.38701,0.0029 -0.774025,0.0052 -1.161039,0.0073 -0.345616,0.0019 -0.691233,0.0035 -1.036851,0.0051 -0.316392,0.0014 -0.632785,0.0026 -0.949178,0.0037 -0.295849,0.001 -0.591699,0.0019 -0.887548,0.0027 -0.281412,7.48e-4 -0.562824,0.0014 -0.844237,0.0019 -0.271269,5.39e-4 -0.542538,9.73e-4 -0.813808,0.0014 -0.264147,3.86e-4 -0.528294,6.94e-4 -0.792441,9.77e-4 -0.173219,1.84e-4 -0.346437,3.39e-4 -0.519655,4.88e-4 -0.18181,0.04706 -0.847338,-2.524118 -0.665529,-2.571178 l 0,0 c 0.172622,-6.56e-4 0.345243,-0.0013 0.517864,-0.0021 0.262966,-0.0013 0.525932,-0.0026 0.788896,-0.0044 0.269642,-0.0018 0.539283,-0.0038 0.808919,-0.0062 0.279198,-0.0026 0.558393,-0.0054 0.83758,-0.0089 0.292881,-0.0037 0.585758,-0.0078 0.87862,-0.01284 0.312483,-0.0054 0.62496,-0.01129 0.937409,-0.01845 0.340566,-0.0079 0.681117,-0.01637 1.021623,-0.02653 0.38061,-0.01144 0.761194,-0.02377 1.141718,-0.03783 0.42993,-0.01573 0.859858,-0.03113 1.289901,-0.04334 0.481668,-0.02261 0.963267,-0.04669 1.444717,-0.0736 0.576613,-0.03216 1.153075,-0.06741 1.729979,-0.09404 0.557223,-0.01909 1.114511,-0.0084 1.671942,-0.01532 0.37264,-0.01642 0.74534,-0.03259 1.117827,-0.05157 0.434439,-0.0486 0.972327,-0.09249 1.379748,-0.02104 0.171391,0.04401 -0.450945,2.467847 -0.622337,2.423841 z"
       inkscape:connector-curvature="0" />
    <path
       style="fill:#000000;fill-opacity:1;stroke:none"
       id="path3843"
       d="m 19.70629,26.96773 c 0.116129,0.07716 0.211442,0.174706 0.325213,0.254325 0.163889,0.09681 0.300508,0.232402 0.438804,0.361504 0.143319,0.166457 0.31643,0.300594 0.481437,0.443964 0.18842,0.138741 0.363814,0.292896 0.5405,0.446102 0.180631,0.146624 0.362726,0.291812 0.549935,0.429996 0.194561,0.155783 0.40275,0.292499 0.605712,0.436735 0.214963,0.156472 0.439829,0.298309 0.657742,0.450675 0.232244,0.147698 0.462101,0.29869 0.687887,0.45617 0.271285,0.182017 0.517394,0.396479 0.761186,0.612901 0.23597,0.203643 0.455616,0.424948 0.6793,0.641781 0.210726,0.194877 0.414422,0.396371 0.62633,0.589985 0.219951,0.209843 0.450843,0.407938 0.669325,0.619226 0.218877,0.211908 0.438908,0.422469 0.663706,0.628081 0.22874,0.209762 0.443543,0.434107 0.669956,0.646406 0.208926,0.191347 0.420447,0.38032 0.63675,0.56334 0.196816,0.214758 0.44768,0.361926 0.679555,0.533892 0.267027,0.203628 0.528286,0.414594 0.7977,0.615101 0.17609,0.131911 0.08745,0.06515 0.265907,0.200308 0.134453,0.136342 -1.793723,2.037797 -1.928176,1.901455 l 0,0 c -0.176156,-0.131116 -0.08722,-0.06493 -0.266819,-0.19857 -0.276507,-0.208997 -0.549665,-0.422313 -0.822136,-0.636537 -0.256829,-0.206207 -0.48913,-0.438311 -0.745477,-0.64485 -0.23969,-0.211535 -0.478393,-0.42444 -0.708855,-0.646053 -0.214713,-0.208127 -0.426293,-0.419468 -0.649209,-0.618939 -0.223513,-0.209455 -0.441379,-0.424789 -0.666181,-0.632867 -0.231308,-0.205431 -0.45538,-0.418673 -0.677765,-0.633698 -0.213693,-0.208136 -0.426556,-0.416855 -0.644252,-0.620856 -0.18998,-0.18618 -0.383352,-0.368559 -0.586833,-0.540075 -0.189772,-0.157413 -0.390308,-0.300608 -0.593114,-0.440703 -0.229329,-0.156384 -0.463919,-0.304916 -0.690373,-0.465517 -0.226442,-0.156672 -0.4549,-0.310464 -0.675075,-0.47599 -0.22483,-0.162218 -0.446716,-0.328221 -0.662291,-0.50265 -0.21251,-0.171394 -0.424293,-0.343804 -0.628061,-0.525612 -0.188712,-0.164455 -0.388952,-0.315387 -0.569107,-0.489676 -0.164551,-0.156577 -0.319632,-0.321849 -0.481043,-0.481228 -0.132272,-0.123826 -0.273607,-0.238335 -0.396497,-0.372071 -0.05332,-0.06216 -0.12166,-0.130002 -0.123251,-0.15134 -0.124077,-0.125693 1.653493,-1.880408 1.77757,-1.754715 z"
       inkscape:connector-curvature="0" />
    <path
       style="fill:#000000;fill-opacity:1;stroke:none"
       id="path3845"
       d="m 27.351925,30.917092 c -0.0078,-0.01624 -0.02627,-0.03096 -0.02329,-0.04871 0.0036,-0.02136 0.214546,0.09337 0.232814,0.103292 0.183772,0.124646 0.36813,0.248453 0.551579,0.373619 0.221199,0.153662 0.449262,0.29669 0.665745,0.457114 0.255539,0.191734 0.506258,0.389951 0.756636,0.588392 0.269272,0.150933 0.412811,0.424029 0.615039,0.642086 0.147579,0.138325 0.289318,0.281563 0.428581,0.428164 0.149803,0.153882 0.308633,0.298847 0.464169,0.446947 0.199826,0.171112 0.391703,0.350208 0.559234,0.553186 0.179097,0.19999 0.29553,0.45059 0.393438,0.698245 0.02259,0.124625 0.04517,0.24925 0.06776,0.373874 0.01421,0.177642 -2.498025,0.378604 -2.512235,0.200962 l 0,0 c 0.02052,0.102906 0.04103,0.205811 0.06155,0.308716 0.06858,0.197967 0.03657,0.07741 -4.41e-4,0.04791 -0.01254,-0.01 0.0042,0.05061 -0.01134,0.04677 -0.03249,-0.008 -0.126128,-0.111618 -0.13334,-0.118915 -0.180904,-0.145833 -0.337201,-0.321721 -0.506427,-0.48052 -0.16791,-0.172429 -0.336156,-0.344687 -0.49586,-0.52483 -0.13135,-0.141756 -0.268394,-0.278277 -0.400386,-0.41949 -0.01039,-0.01058 -0.118307,-0.124653 -0.144054,-0.137639 -0.0081,-0.0041 -0.01607,0.01386 -0.02484,0.01141 -0.125211,-0.03494 -0.212751,-0.164956 -0.318563,-0.229685 -0.225472,-0.178838 -0.449554,-0.3594 -0.675279,-0.537912 -0.209055,-0.147905 -0.417535,-0.296456 -0.622279,-0.450284 -0.188728,-0.136714 -0.375667,-0.276407 -0.552441,-0.428443 -0.123849,-0.117408 -0.252307,-0.231593 -0.351828,-0.371469 -0.108384,-0.139728 1.867671,-1.672514 1.976056,-1.532785 z"
       inkscape:connector-curvature="0" />
    <path
       style="fill:#000000;fill-opacity:1;stroke:none"
       id="path3847"
       d="m 38.362279,35.521881 c 0.05522,0.162419 0.06057,0.337381 0.08521,0.50617 0.03183,0.366164 0.03931,0.734435 0.04704,1.101838 0.0022,0.436896 0.01522,0.873703 0.01606,1.310582 -0.0028,0.42788 -0.01094,0.855704 -0.01785,1.283532 -0.01086,0.363623 -0.0041,0.727276 0.0027,1.090883 0.006,0.32802 0.01058,0.655963 0.02637,0.983674 0.0099,0.313725 0.03674,0.625921 0.06462,0.938335 0.02298,0.30709 0.04827,0.614116 0.08568,0.919825 0.03646,0.269306 0.08897,0.535229 0.148055,0.800283 0.0684,0.328613 0.09813,0.66342 0.135252,0.996535 0.03879,0.329481 0.06727,0.65989 0.08694,0.99102 0.01948,0.312523 0.02538,0.625744 0.04487,0.938237 0.02119,0.318662 0.02641,0.638003 0.04118,0.957049 0.01082,0.315738 0.01461,0.631666 0.01888,0.947545 0.0039,0.297734 0.007,0.595478 0.0098,0.893223 0.0027,0.28286 0.0048,0.565724 0.0068,0.84859 0.0019,0.272328 0.0034,0.544659 0.0048,0.81699 0.0031,0.28127 -0.01136,0.562362 -0.02258,0.843326 -0.01036,0.255641 -0.01888,0.511349 -0.02664,0.76708 -8.57e-4,0.110276 0.0016,0.220537 0.0037,0.330784 0.0031,0.187651 -2.650702,0.23129 -2.653788,0.04364 l 0,0 c -0.003,-0.146013 -0.0064,-0.292049 -0.0044,-0.438106 0.007,-0.262452 0.01477,-0.524886 0.02414,-0.787266 0.0087,-0.246839 0.02123,-0.493829 0.01716,-0.740871 -0.0031,-0.269946 -0.0065,-0.539889 -0.01082,-0.809819 -0.0045,-0.279693 -0.0094,-0.559381 -0.01543,-0.839045 -0.0064,-0.293647 -0.01343,-0.587283 -0.02188,-0.880879 -0.009,-0.311208 -0.01947,-0.622381 -0.02569,-0.933659 -0.0023,-0.288889 -5.93e-4,-0.578385 -0.03077,-0.866093 -0.02269,-0.317036 -0.03794,-0.634552 -0.05981,-0.951652 -0.01902,-0.300251 -0.03136,-0.600874 -0.05388,-0.900896 -0.02239,-0.243922 -0.05131,-0.48817 -0.107807,-0.726859 -0.07685,-0.335848 -0.141274,-0.674332 -0.190403,-1.015415 -0.04394,-0.340747 -0.08203,-0.6823 -0.106115,-1.02509 -0.02263,-0.328362 -0.03288,-0.65751 -0.06153,-0.985521 -0.02306,-0.34679 -0.03616,-0.694011 -0.05154,-1.04121 -0.01756,-0.388038 -0.03492,-0.77612 -0.03651,-1.164637 -0.0069,-0.427828 -0.01504,-0.855652 -0.01785,-1.283532 8.39e-4,-0.436879 0.01391,-0.873686 0.01606,-1.310582 0.0077,-0.367403 0.01521,-0.735674 0.04704,-1.101838 0.02464,-0.168789 0.03,-0.343751 0.08521,-0.50617 0,-0.176618 2.497754,-0.176618 2.497754,0 z"
       inkscape:connector-curvature="0" />
    <path
       style="fill:#000000;fill-opacity:1;stroke:none"
       id="path3849"
       d="m 40.589084,37.25384 c 0.03601,0.119235 0.03998,0.246234 0.05247,0.369572 0.0257,0.256029 0.02946,0.513591 0.0412,0.770484 0.01533,0.36001 0.02446,0.720277 0.03635,1.080432 0.01239,0.441975 0.01874,0.884289 0.0185,1.326444 -0.0034,0.427142 -0.01146,0.854231 -0.01836,1.281327 -0.0061,0.375159 -0.01142,0.75033 -0.01637,1.125506 -0.0015,0.337103 -0.0023,0.674202 -0.0058,1.011315 0.01094,0.362168 -0.01759,0.724115 -0.04487,1.084995 -0.02506,0.315321 -0.04798,0.630799 -0.06888,0.94642 -0.01928,0.293317 -0.03505,0.586846 -0.0496,0.88043 -0.01496,0.288131 -0.02291,0.576567 -0.03907,0.864626 -0.02735,0.305767 -0.05049,0.611867 -0.07843,0.917577 -0.02704,0.286838 -0.05061,0.573978 -0.07214,0.861276 -0.0204,0.274765 -0.03682,0.549798 -0.05193,0.824897 -0.01446,0.266251 -0.02596,0.532648 -0.03654,0.799077 -0.0065,0.291003 -0.02198,0.581062 -0.05226,0.870563 -0.0051,0.04543 -0.01021,0.09085 -0.01532,0.13628 -0.01751,0.187202 -2.664936,-0.06038 -2.64743,-0.247577 l 0,0 c 0.0046,-0.0416 0.0092,-0.0832 0.01378,-0.124799 0.02578,-0.23789 0.0368,-0.475994 0.03954,-0.715349 0.0091,-0.276775 0.01894,-0.553528 0.03132,-0.830178 0.01307,-0.288806 0.02727,-0.577566 0.04492,-0.866133 0.01886,-0.30465 0.03907,-0.609242 0.06554,-0.913342 0.02545,-0.279423 0.06111,-0.557515 0.0915,-0.836384 0.01516,-0.278636 0.01638,-0.557878 0.02871,-0.836657 0.01101,-0.304544 0.02294,-0.609057 0.03755,-0.913452 0.01577,-0.325562 0.03277,-0.65107 0.05342,-0.976364 0.01988,-0.308746 0.04781,-0.617189 0.04796,-0.926843 -0.0033,-0.336856 -0.01004,-0.673601 -0.01724,-1.010378 -0.0049,-0.375176 -0.01027,-0.750347 -0.01637,-1.125506 -0.0069,-0.427096 -0.01493,-0.854185 -0.01836,-1.281327 -2.39e-4,-0.442155 0.0061,-0.884469 0.0185,-1.326444 0.0119,-0.360155 0.02102,-0.720422 0.03635,-1.080432 0.01174,-0.256893 0.0155,-0.514455 0.0412,-0.770484 0.01249,-0.123338 0.01646,-0.250337 0.05247,-0.369572 0,-0.176618 2.497755,-0.176618 2.497755,0 z"
       inkscape:connector-curvature="0" />
  </g>
</svg>
